<?xml version="1.0" encoding="iso-8859-1"?>
<!-- Generator: Adobe Illustrator 18.0.0, SVG Export Plug-In . SVG Version: 6.00 Build 0)  -->
<!DOCTYPE svg PUBLIC "-//W3C//DTD SVG 1.1//EN" "http://www.w3.org/Graphics/SVG/1.1/DTD/svg11.dtd">
<svg version="1.1" id="Capa_1" xmlns="http://www.w3.org/2000/svg" xmlns:xlink="http://www.w3.org/1999/xlink" x="0px" y="0px"
	 viewBox="0 0 352.246 352.246" style="enable-background:new 0 0 352.246 352.246;" xml:space="preserve">
<g>
	<path d="M327.612,133.534h-8.229v-8.245h0.138c5.522,0,10-4.478,10-10s-4.478-10-10-10h-19c-5.522,0-10,4.478-10,10
		c0,5.137,3.876,9.365,8.862,9.931v8.314h-16.065V67.103c0-4.806-3.418-8.932-8.14-9.825l-46.688-8.838
		c-57.617-10.908-116.047-10.908-173.664,0L8.14,57.278C3.418,58.172,0,62.298,0,67.103v152.862c0,4.806,3.418,8.932,8.14,9.825
		l46.688,8.838c10.307,1.951,20.639,3.547,30.989,4.8L67.16,298.791c-1.764,5.233,1.05,10.906,6.283,12.67
		c1.059,0.356,2.136,0.526,3.194,0.526c4.175,0,8.068-2.635,9.476-6.81l5.212-15.467h100.668l5.212,15.467
		c1.407,4.175,5.301,6.81,9.476,6.81c1.059,0,2.136-0.17,3.194-0.526c5.233-1.764,8.047-7.437,6.283-12.67l-18.656-55.362
		c10.349-1.253,20.682-2.849,30.989-4.8l46.688-8.838c4.722-0.894,8.14-5.02,8.14-9.825v-66.432h21.621h22.673
		c2.555,0,4.634,2.079,4.634,4.634v4.975v3.519c0,5.522,4.478,10,10,10s10-4.478,10-10v-8.494
		C352.246,144.585,341.195,133.534,327.612,133.534z M201.318,222.775V64.294c2.599,0.352,5.197,0.719,7.793,1.117v156.248
		C206.515,222.056,203.917,222.424,201.318,222.775z M74.207,221.658V65.411c2.596-0.398,5.194-0.765,7.793-1.117v158.481
		C79.401,222.424,76.803,222.056,74.207,221.658z M229.111,68.912l34.207,6.475v136.294l-34.207,6.475V68.912z M181.318,225.024
		c-26.412,2.369-52.907,2.369-79.318,0V62.045c26.412-2.369,52.907-2.369,79.318,0V225.024z M20,75.387l34.207-6.475v149.244
		L20,211.681V75.387z M141.659,246.809c11.811,0,23.621-0.46,35.418-1.364l8.177,24.265H98.065l8.177-24.265
		C118.038,246.349,129.849,246.809,141.659,246.809z"/>
</g>
<g>
</g>
<g>
</g>
<g>
</g>
<g>
</g>
<g>
</g>
<g>
</g>
<g>
</g>
<g>
</g>
<g>
</g>
<g>
</g>
<g>
</g>
<g>
</g>
<g>
</g>
<g>
</g>
<g>
</g>
</svg>
