<?xml version="1.0" encoding="iso-8859-1"?>
<!-- Generator: Adobe Illustrator 18.0.0, SVG Export Plug-In . SVG Version: 6.00 Build 0)  -->
<!DOCTYPE svg PUBLIC "-//W3C//DTD SVG 1.1//EN" "http://www.w3.org/Graphics/SVG/1.1/DTD/svg11.dtd">
<svg version="1.1" id="Capa_1" xmlns="http://www.w3.org/2000/svg" xmlns:xlink="http://www.w3.org/1999/xlink" x="0px" y="0px"
	 viewBox="0 0 380.54 380.54" style="enable-background:new 0 0 380.54 380.54;" xml:space="preserve">
<g>
	<path d="M233.942,158.947c-10.332-39.355-15.71-79.91-15.994-120.591l1.054-1.36c1.357-1.753,2.095-3.907,2.095-6.125V10
		c0-5.523-4.478-10-10-10h-41.652c-5.522,0-10,4.477-10,10v20.872c0,2.217,0.737,4.372,2.095,6.125l1.054,1.36
		c-0.284,40.681-5.662,81.235-15.994,120.591c-6.813,25.948-10.268,52.176-10.268,77.955V362.42c0,9.991,8.128,18.12,18.119,18.12
		h71.641c9.991,0,18.119-8.128,18.119-18.12V236.901C244.209,211.123,240.755,184.895,233.942,158.947z M224.209,360.54h-67.879
		V236.901c0-24.065,3.233-48.584,9.611-72.875c11.057-42.111,16.662-85.539,16.662-129.075c0-2.217-0.737-4.372-2.095-6.125
		l-1.065-1.375V20h21.652v7.452l-1.065,1.375c-1.357,1.753-2.095,3.907-2.095,6.125c0,43.537,5.605,86.964,16.662,129.075
		c6.378,24.291,9.611,48.81,9.611,72.875V360.54z"/>
</g>
<g>
</g>
<g>
</g>
<g>
</g>
<g>
</g>
<g>
</g>
<g>
</g>
<g>
</g>
<g>
</g>
<g>
</g>
<g>
</g>
<g>
</g>
<g>
</g>
<g>
</g>
<g>
</g>
<g>
</g>
</svg>
