<?xml version="1.0" encoding="iso-8859-1"?>
<!-- Generator: Adobe Illustrator 18.0.0, SVG Export Plug-In . SVG Version: 6.00 Build 0)  -->
<!DOCTYPE svg PUBLIC "-//W3C//DTD SVG 1.1//EN" "http://www.w3.org/Graphics/SVG/1.1/DTD/svg11.dtd">
<svg version="1.1" id="Capa_1" xmlns="http://www.w3.org/2000/svg" xmlns:xlink="http://www.w3.org/1999/xlink" x="0px" y="0px"
	 viewBox="0 0 381.309 381.309" style="enable-background:new 0 0 381.309 381.309;" xml:space="preserve">
<g>
	<path d="M311.907,210.323c-16.301-34.448-45.558-59.987-81.007-71.026l-1.584-85.267c-0.012-0.675-0.093-1.347-0.241-2.005
		l-2.723-12.123l1.39-29.43c0.129-2.731-0.866-5.396-2.753-7.374C223.101,1.12,220.486,0,217.752,0h-54.196
		c-2.733,0-5.348,1.119-7.235,3.097c-1.887,1.977-2.882,4.641-2.754,7.372l1.381,29.474l-2.626,12.164
		c-0.136,0.629-0.21,1.27-0.223,1.913l-1.682,85.275c-35.453,11.038-64.714,36.579-81.016,71.029
		c-17.424,36.821-17.378,79.073,0.127,115.922L92.976,375.6c1.657,3.487,5.172,5.709,9.033,5.709H279.3
		c3.86,0,7.376-2.222,9.033-5.709l23.447-49.354C329.285,289.396,329.332,247.145,311.907,210.323z M293.714,317.663l-20.734,43.646
		H108.329l-20.734-43.646c-14.919-31.405-14.961-67.411-0.115-98.785c14.853-31.386,42.261-54.077,75.199-62.253
		c4.388-1.089,7.5-4.988,7.589-9.508l1.81-91.736l2.697-12.494c0.183-0.847,0.255-1.713,0.214-2.579L174.036,20h33.233
		l-0.959,20.305c-0.042,0.894,0.036,1.79,0.232,2.663l2.796,12.449l1.704,91.688c0.084,4.524,3.196,8.429,7.589,9.52
		c32.938,8.176,60.346,30.867,75.199,62.253C308.676,250.252,308.634,286.258,293.714,317.663z"/>
</g>
<g>
</g>
<g>
</g>
<g>
</g>
<g>
</g>
<g>
</g>
<g>
</g>
<g>
</g>
<g>
</g>
<g>
</g>
<g>
</g>
<g>
</g>
<g>
</g>
<g>
</g>
<g>
</g>
<g>
</g>
</svg>
