<?xml version="1.0" encoding="iso-8859-1"?>
<!-- Generator: Adobe Illustrator 18.0.0, SVG Export Plug-In . SVG Version: 6.00 Build 0)  -->
<!DOCTYPE svg PUBLIC "-//W3C//DTD SVG 1.1//EN" "http://www.w3.org/Graphics/SVG/1.1/DTD/svg11.dtd">
<svg version="1.1" id="Capa_1" xmlns="http://www.w3.org/2000/svg" xmlns:xlink="http://www.w3.org/1999/xlink" x="0px" y="0px"
	 viewBox="0 0 391.607 391.607" style="enable-background:new 0 0 391.607 391.607;" xml:space="preserve">
<g>
	<path d="M257.205,214.744c-1.319-15.292-4.904-30.26-10.654-44.487l-6.09-15.07c-8.465-20.946-13.617-42.987-15.313-65.512
		l-2.835-37.646l3.101-9.424c0.459-1.394,0.604-2.872,0.429-4.329l-3.573-29.478C221.659,3.776,217.398,0,212.341,0h-33.074
		c-5.058,0-9.318,3.776-9.928,8.797l-3.573,29.478c-0.176,1.457-0.03,2.935,0.429,4.329l3.101,9.424l-2.835,37.646
		c-1.696,22.525-6.849,44.566-15.313,65.513l-6.09,15.069c-5.75,14.228-9.335,29.195-10.654,44.489
		c-0.378,4.384-0.569,8.836-0.569,13.233v136.756c0,14.817,12.3,26.873,27.419,26.873h69.104c15.119,0,27.419-12.055,27.419-26.873
		V227.979C257.774,223.582,257.583,219.129,257.205,214.744z M237.774,364.735c0,3.79-3.328,6.873-7.419,6.873h-69.104
		c-4.091,0-7.419-3.083-7.419-6.873V227.979c0-3.826,0.167-7.701,0.495-11.516c1.148-13.307,4.268-26.332,9.271-38.712l6.09-15.069
		c9.239-22.861,14.862-46.919,16.714-71.504l2.984-39.632c0.099-1.311-0.062-2.628-0.473-3.876l-3.026-9.198L188.128,20h15.352
		l2.239,18.47l-3.026,9.198c-0.411,1.249-0.571,2.566-0.473,3.876l2.984,39.632c1.852,24.585,7.475,48.643,16.714,71.504
		l6.09,15.071c5.004,12.38,8.123,25.404,9.271,38.71c0.328,3.816,0.495,7.691,0.495,11.518V364.735z"/>
</g>
<g>
</g>
<g>
</g>
<g>
</g>
<g>
</g>
<g>
</g>
<g>
</g>
<g>
</g>
<g>
</g>
<g>
</g>
<g>
</g>
<g>
</g>
<g>
</g>
<g>
</g>
<g>
</g>
<g>
</g>
</svg>
