<?xml version="1.0" encoding="iso-8859-1"?>
<!-- Generator: Adobe Illustrator 18.0.0, SVG Export Plug-In . SVG Version: 6.00 Build 0)  -->
<!DOCTYPE svg PUBLIC "-//W3C//DTD SVG 1.1//EN" "http://www.w3.org/Graphics/SVG/1.1/DTD/svg11.dtd">
<svg version="1.1" id="Capa_1" xmlns="http://www.w3.org/2000/svg" xmlns:xlink="http://www.w3.org/1999/xlink" x="0px" y="0px"
	 viewBox="0 0 415.4 415.4" style="enable-background:new 0 0 415.4 415.4;" xml:space="preserve">
<g>
	<path d="M284.503,372.561l-9.407-17.651c10.945-23.902,16.711-50.25,16.711-76.531c0-31.078-7.568-62.084-21.888-89.667
		l-16.045-30.907c-10.487-20.203-16.031-42.912-16.031-65.672V24.423C237.843,10.956,226.887,0,213.42,0H201.98
		c-13.467,0-24.423,10.956-24.423,24.423v67.709c0,22.761-5.544,45.47-16.031,65.672l-16.045,30.907
		c-14.319,27.583-21.888,58.588-21.888,89.667c0,26.282,5.766,52.629,16.711,76.531l-9.407,17.651
		c-0.432,0.811-0.75,1.677-0.945,2.575c-2.149,9.865,0.251,20.032,6.585,27.894c6.334,7.862,15.757,12.372,25.854,12.372h90.619
		c10.097,0,19.52-4.509,25.854-12.372c6.334-7.862,8.734-18.029,6.585-27.894C285.253,374.238,284.935,373.371,284.503,372.561z
		 M157.865,345.167c-9.343-20.925-14.271-43.881-14.271-66.789c0-15.735,2.165-31.45,6.358-46.604
		c18.244,1.74,37.188,2.626,56.329,2.626c20.117,0,39.988-0.979,59.089-2.898c4.243,15.238,6.437,31.045,6.437,46.875
		c0,22.908-4.929,45.864-14.271,66.789H157.865z M163.231,197.926l16.045-30.907c11.96-23.037,18.281-48.933,18.281-74.887V24.423
		c0-2.439,1.984-4.423,4.423-4.423h11.439c2.438,0,4.423,1.984,4.423,4.423v67.709c0,25.955,6.321,51.85,18.281,74.887
		l16.045,30.907c2.392,4.607,4.572,9.322,6.539,14.122c-17.005,1.557-34.61,2.352-52.428,2.352c-16.855,0-33.538-0.712-49.688-2.107
		C158.586,207.409,160.799,202.612,163.231,197.926z M263.289,390.482c-2.519,3.125-6.266,4.918-10.279,4.918h-90.619
		c-4.014,0-7.761-1.793-10.279-4.918c-2.266-2.813-3.266-6.369-2.82-9.91l8.21-15.405h100.398l8.21,15.405
		C266.555,384.113,265.555,387.669,263.289,390.482z"/>
</g>
<g>
</g>
<g>
</g>
<g>
</g>
<g>
</g>
<g>
</g>
<g>
</g>
<g>
</g>
<g>
</g>
<g>
</g>
<g>
</g>
<g>
</g>
<g>
</g>
<g>
</g>
<g>
</g>
<g>
</g>
</svg>
