<?xml version="1.0" encoding="iso-8859-1"?>
<!-- Generator: Adobe Illustrator 18.0.0, SVG Export Plug-In . SVG Version: 6.00 Build 0)  -->
<!DOCTYPE svg PUBLIC "-//W3C//DTD SVG 1.1//EN" "http://www.w3.org/Graphics/SVG/1.1/DTD/svg11.dtd">
<svg version="1.1" id="Capa_1" xmlns="http://www.w3.org/2000/svg" xmlns:xlink="http://www.w3.org/1999/xlink" x="0px" y="0px"
	 viewBox="0 0 398.322 398.322" style="enable-background:new 0 0 398.322 398.322;" xml:space="preserve">
<g>
	<path d="M267.257,23.045h-29.695V10c0-5.523-4.478-10-10-10h-56.8c-5.523,0-10,4.477-10,10v13.045h-29.695
		c-13.686,0-24.821,11.135-24.821,24.821c0,13.686,11.135,24.821,24.821,24.821h32.898c3.092,7.071,8.253,13.033,14.714,17.125
		c-1.158,1.632-1.846,3.622-1.846,5.776c0,5.523,4.477,10,10,10h2.329v3.399h-2.329c-5.523,0-10,4.477-10,10s4.477,10,10,10h2.329
		v6.292c-6.083,0.912-12.004,2.65-17.688,5.226l-12.104,5.486c-8.651,3.922-14.242,12.594-14.242,22.092v120.785l-3.441,26.799
		c-0.366,2.851,0.512,5.721,2.411,7.879s4.634,3.395,7.508,3.395h34.882c-0.207,0.195-0.428,0.38-0.628,0.58
		c-3.653,3.656-5.505,7.678-5.505,11.953c0,4.276,1.853,8.298,5.504,11.952c2.23,2.233,4.922,4.138,7.534,5.986
		c0.756,0.535,1.522,1.078,2.235,1.601c-0.716,0.525-1.485,1.07-2.245,1.608c-2.604,1.843-5.295,3.749-7.523,5.979
		c-3.653,3.656-5.505,7.678-5.505,11.953c0,4.276,1.853,8.298,5.504,11.952c2.23,2.233,4.922,4.138,7.525,5.98
		c1.754,1.242,3.771,1.838,5.768,1.838c3.135,0,6.223-1.471,8.172-4.224c3.19-4.508,2.122-10.749-2.387-13.939
		c-0.736-0.521-1.512-1.07-2.243-1.607c0.717-0.526,1.487-1.071,2.247-1.609c2.603-1.842,5.294-3.747,7.522-5.978
		c3.652-3.656,5.504-7.678,5.504-11.952c0-4.273-1.852-8.293-5.506-11.954c-2.226-2.227-4.913-4.13-7.524-5.979
		c-0.735-0.521-1.512-1.07-2.243-1.607c0.717-0.526,1.487-1.071,2.247-1.609c2.603-1.842,5.294-3.747,7.522-5.978
		c1.58-1.582,2.802-3.236,3.704-4.945h30.549c2.874,0,5.609-1.237,7.508-3.395s2.776-5.028,2.411-7.879l-3.441-26.799V168.083
		c0-9.499-5.591-18.171-14.243-22.092l-12.103-5.486c-5.683-2.576-11.604-4.313-17.688-5.226v-6.292h2.329c5.522,0,10-4.477,10-10
		s-4.478-10-10-10h-2.329v-3.399h2.329c5.522,0,10-4.477,10-10c0-2.154-0.688-4.144-1.846-5.776
		c6.462-4.092,11.622-10.054,14.714-17.125h32.898c13.686,0,24.82-11.135,24.82-24.821C292.077,34.18,280.942,23.045,267.257,23.045
		z M267.257,52.688h-29.695v-9.642h29.695c2.658,0,4.82,2.163,4.82,4.821C272.077,50.525,269.915,52.688,267.257,52.688z
		 M199.161,75.756c-10.146,0-18.4-8.254-18.4-18.4V20h36.8v37.356C217.562,67.501,209.308,75.756,199.161,75.756z M131.066,52.688
		c-2.658,0-4.821-2.163-4.821-4.821c0-2.658,2.163-4.821,4.821-4.821h29.695v9.642H131.066z M209.161,279.508v-17.122h2.329
		c5.522,0,10-4.477,10-10v-73.034h11.704v100.155H209.161z M165.128,179.353h11.704v73.034c0,5.523,4.477,10,10,10h2.329v17.122
		h-24.033V179.353z M201.49,242.386h-4.658v-63.034h4.658V242.386z M162.972,306.941l0.954-7.433h70.47l0.955,7.433H162.972z
		 M219.985,159.353h-41.647l1.392-0.631c6.146-2.786,12.684-4.198,19.431-4.198c6.748,0,13.285,1.413,19.431,4.198L219.985,159.353z
		"/>
</g>
<g>
</g>
<g>
</g>
<g>
</g>
<g>
</g>
<g>
</g>
<g>
</g>
<g>
</g>
<g>
</g>
<g>
</g>
<g>
</g>
<g>
</g>
<g>
</g>
<g>
</g>
<g>
</g>
<g>
</g>
</svg>
