<?xml version="1.0" encoding="iso-8859-1"?>
<!-- Generator: Adobe Illustrator 18.0.0, SVG Export Plug-In . SVG Version: 6.00 Build 0)  -->
<!DOCTYPE svg PUBLIC "-//W3C//DTD SVG 1.1//EN" "http://www.w3.org/Graphics/SVG/1.1/DTD/svg11.dtd">
<svg version="1.1" id="Capa_1" xmlns="http://www.w3.org/2000/svg" xmlns:xlink="http://www.w3.org/1999/xlink" x="0px" y="0px"
	 viewBox="0 0 343.107 343.107" style="enable-background:new 0 0 343.107 343.107;" xml:space="preserve">
<g>
	<path d="M291.912,15.92c-5.17-4.636-12.095-6.862-18.998-6.107l-27.28,2.981C223.265,4.304,199.795,0,175.835,0h-8.563
		c-23.96,0-47.43,4.304-69.8,12.794L70.193,9.813c-6.907-0.757-13.829,1.472-18.998,6.107c-5.17,4.636-8.136,11.278-8.136,18.223
		v47.558c0,6.844,2.894,13.42,7.939,18.044c5.045,4.624,11.854,6.938,18.667,6.337l27.806-2.431
		c16.135,5.866,32.832,9.572,49.826,11.075v66.765c0,5.504,4.448,9.967,9.945,9.997c-1.114,2.69-1.69,5.398-1.69,8.1
		c0,4.561,1.601,9.143,4.758,13.619c2.335,3.31,5.292,6.275,8.172,9.162c2.27,2.275,4.616,4.627,5.969,6.545
		c0.991,1.404,1.095,2.065,1.101,2.065c-0.006,0.045-0.107,0.706-1.1,2.114c-1.354,1.919-3.701,4.271-5.979,6.556
		c-2.864,2.87-5.825,5.838-8.164,9.152c-3.157,4.475-4.757,9.057-4.757,13.619c0,4.561,1.601,9.143,4.758,13.62
		c2.336,3.311,5.295,6.277,8.163,9.151c2.273,2.278,4.623,4.633,5.979,6.556c0.99,1.403,1.094,2.064,1.101,2.064
		c-0.006,0.045-0.107,0.706-1.1,2.114c-1.356,1.922-3.707,4.278-5.985,6.561c-2.862,2.869-5.821,5.835-8.159,9.148
		c-3.156,4.475-4.757,9.057-4.757,13.618c0,4.562,1.601,9.144,4.757,13.619c1.948,2.761,5.04,4.236,8.18,4.236
		c1.992,0,4.004-0.594,5.756-1.83c4.513-3.184,5.59-9.423,2.407-13.936c-0.99-1.403-1.094-2.064-1.101-2.064
		c0.006-0.045,0.107-0.706,1.1-2.113c1.356-1.921,3.704-4.275,5.98-6.557c2.864-2.87,5.825-5.838,8.164-9.152
		c3.157-4.475,4.757-9.057,4.757-13.618c0-4.562-1.601-9.144-4.758-13.619c-2.338-3.314-5.299-6.282-8.167-9.157
		c-2.271-2.277-4.62-4.631-5.974-6.55c-0.99-1.404-1.095-2.065-1.101-2.065c0.006-0.045,0.107-0.706,1.1-2.114
		c1.356-1.922,3.707-4.278,5.99-6.566c2.86-2.867,5.818-5.832,8.154-9.143c3.156-4.475,4.757-9.057,4.757-13.618
		s-1.601-9.143-4.758-13.619c-2.335-3.311-5.292-6.275-8.172-9.162c-2.27-2.275-4.616-4.627-5.969-6.545
		c-0.991-1.404-1.095-2.065-1.101-2.065c0.006-0.045,0.107-0.706,1.1-2.114c1.248-1.768,3.338-3.904,5.434-6.008h3.722
		c5.523,0,10-4.477,10-10v-67.016c17.027-1.728,33.713-5.658,49.826-11.774l27.279,2.981c6.904,0.756,13.828-1.472,18.998-6.108
		c5.17-4.636,8.135-11.277,8.135-18.222V34.143C300.048,27.198,297.083,20.556,291.912,15.92z M167.298,171.492v-55.996h8.511
		v55.996H167.298z M280.048,81.354c0,1.738-0.932,2.833-1.487,3.331c-0.555,0.499-1.741,1.305-3.473,1.117l-29.701-3.246
		c-1.611-0.175-3.243,0.042-4.752,0.637c-17.66,6.958-36.105,10.981-54.956,12.022h-28.38c-0.386,0-0.766,0.027-1.141,0.07
		c-17.717-0.852-35.125-4.347-51.862-10.433l-2.071-0.753c-1.097-0.399-2.253-0.602-3.417-0.602c-0.29,0-0.581,0.013-0.871,0.038
		l-30.012,2.624c-1.707,0.149-2.871-0.662-3.413-1.159c-0.542-0.497-1.452-1.586-1.452-3.299V34.143
		c0-1.738,0.932-2.833,1.487-3.332c0.556-0.498,1.748-1.306,3.473-1.116l29.701,3.246c1.613,0.176,3.243-0.042,4.752-0.637
		C123.197,24.14,144.999,20,167.272,20h8.563c22.274,0,44.076,4.14,64.8,12.304c1.509,0.594,3.139,0.813,4.752,0.637l29.701-3.246
		c1.73-0.191,2.917,0.619,3.473,1.116c0.555,0.498,1.487,1.593,1.487,3.332V81.354z"/>
</g>
<g>
</g>
<g>
</g>
<g>
</g>
<g>
</g>
<g>
</g>
<g>
</g>
<g>
</g>
<g>
</g>
<g>
</g>
<g>
</g>
<g>
</g>
<g>
</g>
<g>
</g>
<g>
</g>
<g>
</g>
</svg>
