<?xml version="1.0" encoding="iso-8859-1"?>
<!-- Generator: Adobe Illustrator 18.0.0, SVG Export Plug-In . SVG Version: 6.00 Build 0)  -->
<!DOCTYPE svg PUBLIC "-//W3C//DTD SVG 1.1//EN" "http://www.w3.org/Graphics/SVG/1.1/DTD/svg11.dtd">
<svg version="1.1" id="Capa_1" xmlns="http://www.w3.org/2000/svg" xmlns:xlink="http://www.w3.org/1999/xlink" x="0px" y="0px"
	 viewBox="0 0 234 234" style="enable-background:new 0 0 234 234;" xml:space="preserve">
<g>
	<path d="M172.647,15.616C171.774,14.979,150.873,0,117,0S62.226,14.979,61.353,15.616c-2.578,1.883-4.103,4.884-4.103,8.076V211.14
		c0,2.81,1.182,5.489,3.257,7.385C62.241,220.108,78.563,234,117,234s54.759-13.892,56.493-15.476
		c2.075-1.896,3.257-4.575,3.257-7.385V23.692C176.75,20.5,175.226,17.499,172.647,15.616z M152.59,29.436
		c-0.092,0.083-10.257,8.327-35.59,8.327c-25.313,0-35.649-8.386-35.751-8.471l0.161,0.144l-4.16,4.555v-4.634
		C83.802,25.9,97.799,20,117,20c17.135,0,30.108,4.695,37.35,8.155C153.731,28.511,153.139,28.934,152.59,29.436z M77.25,50.046
		c7.758,3.687,20.606,7.716,39.75,7.716s31.992-4.03,39.75-7.716v155.76C151.221,208.847,138.651,214,117,214
		s-34.221-5.153-39.75-8.193V50.046z"/>
	<circle cx="113.254" cy="158.997" r="8.042"/>
	<circle cx="142.474" cy="156.997" r="8.042"/>
	<circle cx="129.338" cy="181.595" r="8.042"/>
</g>
<g>
</g>
<g>
</g>
<g>
</g>
<g>
</g>
<g>
</g>
<g>
</g>
<g>
</g>
<g>
</g>
<g>
</g>
<g>
</g>
<g>
</g>
<g>
</g>
<g>
</g>
<g>
</g>
<g>
</g>
</svg>
