<?xml version="1.0" encoding="iso-8859-1"?>
<!-- Generator: Adobe Illustrator 18.0.0, SVG Export Plug-In . SVG Version: 6.00 Build 0)  -->
<!DOCTYPE svg PUBLIC "-//W3C//DTD SVG 1.1//EN" "http://www.w3.org/Graphics/SVG/1.1/DTD/svg11.dtd">
<svg version="1.1" id="Capa_1" xmlns="http://www.w3.org/2000/svg" xmlns:xlink="http://www.w3.org/1999/xlink" x="0px" y="0px"
	 viewBox="0 0 314.862 314.862" style="enable-background:new 0 0 314.862 314.862;" xml:space="preserve">
<g>
	<path d="M235.565,85.706l-9.1-76.881C225.87,3.792,221.603,0,216.535,0H98.328c-5.068,0-9.335,3.792-9.931,8.825l-9.1,76.881
		c-6.025,50.906,21.774,99.057,68.134,119.549v78.353l-20.806,12.723c-3.821,2.337-5.623,6.93-4.409,11.241s5.147,7.29,9.626,7.29
		h51.179c4.479,0,8.412-2.979,9.626-7.29s-0.588-8.904-4.409-11.241l-20.806-12.723v-78.353
		C213.791,184.763,241.59,136.612,235.565,85.706z M99.159,88.057L107.214,20h100.435l8.055,68.057
		c1.915,16.183-0.305,32.03-5.933,46.375H105.092C99.463,120.087,97.243,104.24,99.159,88.057z M115.833,154.431h83.196
		c-10.167,14.487-24.395,26.211-41.598,33.379C140.228,180.643,126.001,168.918,115.833,154.431z"/>
</g>
<g>
</g>
<g>
</g>
<g>
</g>
<g>
</g>
<g>
</g>
<g>
</g>
<g>
</g>
<g>
</g>
<g>
</g>
<g>
</g>
<g>
</g>
<g>
</g>
<g>
</g>
<g>
</g>
<g>
</g>
</svg>
