<?xml version="1.0" encoding="iso-8859-1"?>
<!-- Generator: Adobe Illustrator 18.0.0, SVG Export Plug-In . SVG Version: 6.00 Build 0)  -->
<!DOCTYPE svg PUBLIC "-//W3C//DTD SVG 1.1//EN" "http://www.w3.org/Graphics/SVG/1.1/DTD/svg11.dtd">
<svg version="1.1" id="Capa_1" xmlns="http://www.w3.org/2000/svg" xmlns:xlink="http://www.w3.org/1999/xlink" x="0px" y="0px"
	 viewBox="0 0 330.173 330.173" style="enable-background:new 0 0 330.173 330.173;" xml:space="preserve">
<g>
	<path d="M187.205,173.904c10.77-17.771,36.525-60.286,43.083-71.215c10.739-17.898,13.775-39.721,8.33-59.87l-1.324-4.898
		c-3.655-13.522-11.003-25.708-21.251-35.241c-1.851-1.721-4.284-2.678-6.811-2.678L120.944,0c-2.527,0-4.96,0.957-6.811,2.677
		c-10.249,9.532-17.598,21.719-21.253,35.244l-1.324,4.898c-5.445,20.149-2.41,41.972,8.329,59.87
		c6.558,10.929,32.313,53.443,43.084,71.215c2.856,4.712,7.152,8.323,12.118,10.416v114.599l-20.806,12.723
		c-3.821,2.337-5.623,6.93-4.409,11.241s5.147,7.29,9.626,7.29h51.179c4.479,0,8.412-2.979,9.626-7.29s-0.588-8.904-4.409-11.241
		l-20.806-12.723V184.32C180.053,182.227,184.349,178.616,187.205,173.904z M112.188,43.139c2.347-8.683,6.771-16.612,12.88-23.139
		l80.039,0.001c6.109,6.527,10.533,14.456,12.879,23.137l1.324,4.898c1,3.699,1.611,7.473,1.848,11.261H109.016
		c0.237-3.788,0.848-7.562,1.848-11.261L112.188,43.139z M117.035,92.399c-2.476-4.127-4.398-8.536-5.752-13.102h107.606
		c-1.353,4.565-3.276,8.974-5.752,13.102c-6.537,10.896-32.275,53.38-43.037,71.139c-1.055,1.741-2.976,2.822-5.014,2.822
		s-3.959-1.081-5.014-2.821C149.311,145.779,123.573,103.294,117.035,92.399z"/>
</g>
<g>
</g>
<g>
</g>
<g>
</g>
<g>
</g>
<g>
</g>
<g>
</g>
<g>
</g>
<g>
</g>
<g>
</g>
<g>
</g>
<g>
</g>
<g>
</g>
<g>
</g>
<g>
</g>
<g>
</g>
</svg>
