<?xml version="1.0" encoding="iso-8859-1"?>
<!-- Generator: Adobe Illustrator 18.0.0, SVG Export Plug-In . SVG Version: 6.00 Build 0)  -->
<!DOCTYPE svg PUBLIC "-//W3C//DTD SVG 1.1//EN" "http://www.w3.org/Graphics/SVG/1.1/DTD/svg11.dtd">
<svg version="1.1" id="Capa_1" xmlns="http://www.w3.org/2000/svg" xmlns:xlink="http://www.w3.org/1999/xlink" x="0px" y="0px"
	 viewBox="0 0 363.432 363.432" style="enable-background:new 0 0 363.432 363.432;" xml:space="preserve">
<g>
	<path d="M221.692,0h-79.953c-5.522,0-10,4.477-10,10v125.751c0,29.139,5.492,57.628,16.322,84.676
		c4.257,10.633,13.051,18.355,23.654,21.37v90.38L150.91,344.9c-3.821,2.337-5.623,6.93-4.409,11.241s5.146,7.29,9.626,7.29h51.178
		c4.479,0,8.412-2.979,9.626-7.29s-0.588-8.904-4.409-11.241l-20.806-12.723v-90.38c10.604-3.015,19.397-10.737,23.653-21.369
		c10.831-27.049,16.323-55.539,16.323-84.677V10C231.692,4.477,227.215,0,221.692,0z M211.692,20v50h-59.953V20H211.692z
		 M196.802,212.994c-2.482,6.203-8.404,10.21-15.086,10.21s-12.604-4.008-15.087-10.211c-9.88-24.674-14.89-50.663-14.89-77.243V90
		h59.953v45.751C211.692,162.331,206.683,188.319,196.802,212.994z"/>
</g>
<g>
</g>
<g>
</g>
<g>
</g>
<g>
</g>
<g>
</g>
<g>
</g>
<g>
</g>
<g>
</g>
<g>
</g>
<g>
</g>
<g>
</g>
<g>
</g>
<g>
</g>
<g>
</g>
<g>
</g>
</svg>
