<?xml version="1.0" encoding="iso-8859-1"?>
<!-- Generator: Adobe Illustrator 18.0.0, SVG Export Plug-In . SVG Version: 6.00 Build 0)  -->
<!DOCTYPE svg PUBLIC "-//W3C//DTD SVG 1.1//EN" "http://www.w3.org/Graphics/SVG/1.1/DTD/svg11.dtd">
<svg version="1.1" id="Capa_1" xmlns="http://www.w3.org/2000/svg" xmlns:xlink="http://www.w3.org/1999/xlink" x="0px" y="0px"
	 viewBox="0 0 340.862 340.862" style="enable-background:new 0 0 340.862 340.862;" xml:space="preserve">
<g>
	<path d="M249.938,111.72L239.483,8.987C238.964,3.883,234.666,0,229.535,0H111.328c-5.131,0-9.429,3.883-9.949,8.987L90.924,111.72
		c-5.182,50.923,23.167,99.067,69.507,119.536v78.353l-20.806,12.723c-3.821,2.337-5.623,6.93-4.409,11.241s5.147,7.29,9.626,7.29
		h51.179c4.479,0,8.412-2.979,9.626-7.29s-0.588-8.904-4.409-11.241l-20.806-12.723v-78.353
		C226.771,210.787,255.121,162.642,249.938,111.72z M110.821,113.745L120.362,20H220.5l9.541,93.745
		c1.659,16.299-0.828,32.254-6.705,46.686H117.527C111.649,145.999,109.162,130.044,110.821,113.745z M128.542,180.431h83.778
		c-10.35,14.489-24.68,26.213-41.889,33.38C153.222,206.644,138.892,194.92,128.542,180.431z"/>
</g>
<g>
</g>
<g>
</g>
<g>
</g>
<g>
</g>
<g>
</g>
<g>
</g>
<g>
</g>
<g>
</g>
<g>
</g>
<g>
</g>
<g>
</g>
<g>
</g>
<g>
</g>
<g>
</g>
<g>
</g>
</svg>
