<?xml version="1.0" encoding="iso-8859-1"?>
<!-- Generator: Adobe Illustrator 18.0.0, SVG Export Plug-In . SVG Version: 6.00 Build 0)  -->
<!DOCTYPE svg PUBLIC "-//W3C//DTD SVG 1.1//EN" "http://www.w3.org/Graphics/SVG/1.1/DTD/svg11.dtd">
<svg version="1.1" id="Capa_1" xmlns="http://www.w3.org/2000/svg" xmlns:xlink="http://www.w3.org/1999/xlink" x="0px" y="0px"
	 viewBox="0 0 349.245 349.245" style="enable-background:new 0 0 349.245 349.245;" xml:space="preserve">
<g>
	<path d="M226.703,133.799c1.988-7.627,3.56-15.372,4.753-23.182c0.098-0.432,0.17-0.873,0.21-1.325
		c3.758-25.591,3.258-51.879-1.57-77.223l-4.562-23.941C224.636,3.412,220.512,0,215.711,0h-82.178
		c-4.801,0-8.925,3.412-9.823,8.128l-4.561,23.941c-4.828,25.344-5.329,51.631-1.571,77.221c0.04,0.453,0.112,0.896,0.21,1.329
		c1.193,7.809,2.765,15.553,4.752,23.179c7.376,28.308,21.903,54.81,42.081,76.915V317.99l-20.806,12.723
		c-3.821,2.337-5.623,6.93-4.409,11.241s5.147,7.29,9.626,7.29h51.178c4.479,0,8.412-2.979,9.626-7.29s-0.588-8.904-4.409-11.241
		l-20.806-12.723V210.713C204.8,188.609,219.326,162.108,226.703,133.799z M138.795,35.813L141.808,20h65.628l3.013,15.813
		c3.912,20.534,4.703,41.744,2.442,62.589h-76.537C134.092,77.557,134.884,56.346,138.795,35.813z M139.49,118.401h70.263
		c-0.718,3.472-1.511,6.928-2.404,10.354c-5.966,22.895-17.204,44.495-32.728,63.046c-15.524-18.552-26.762-40.152-32.728-63.046
		C141.002,125.329,140.208,121.874,139.49,118.401z"/>
</g>
<g>
</g>
<g>
</g>
<g>
</g>
<g>
</g>
<g>
</g>
<g>
</g>
<g>
</g>
<g>
</g>
<g>
</g>
<g>
</g>
<g>
</g>
<g>
</g>
<g>
</g>
<g>
</g>
<g>
</g>
</svg>
