<?xml version="1.0" encoding="iso-8859-1"?>
<!-- Generator: Adobe Illustrator 18.0.0, SVG Export Plug-In . SVG Version: 6.00 Build 0)  -->
<!DOCTYPE svg PUBLIC "-//W3C//DTD SVG 1.1//EN" "http://www.w3.org/Graphics/SVG/1.1/DTD/svg11.dtd">
<svg version="1.1" id="Capa_1" xmlns="http://www.w3.org/2000/svg" xmlns:xlink="http://www.w3.org/1999/xlink" x="0px" y="0px"
	 viewBox="0 0 302.505 302.505" style="enable-background:new 0 0 302.505 302.505;" xml:space="preserve">
<g>
	<path d="M249.468,147.017c0-21.728-17.677-39.405-39.405-39.405c-11.68,0-22.183,5.112-29.405,13.211
		c-4.762-5.34-10.949-9.378-17.961-11.511c0.13-0.975,0.116-1.987-0.058-3.008c-0.475-2.776-0.964-5.635-1.082-7.769
		c2.135,0.119,4.992,0.607,7.768,1.083c4.012,0.686,8.159,1.396,12.043,1.396c0.005,0,0.011,0,0.016,0
		c5.94-0.003,10.661-1.711,14.031-5.081c3.367-3.369,5.076-8.089,5.078-14.027c0.003-3.889-0.708-8.043-1.396-12.06
		c-0.475-2.776-0.964-5.635-1.082-7.769c2.135,0.119,4.992,0.607,7.768,1.083c4.012,0.686,8.159,1.396,12.043,1.396
		c0.005,0,0.011,0,0.016,0c5.94-0.003,10.661-1.711,14.029-5.079c3.905-3.905,3.906-10.236,0.002-14.142
		c-3.613-3.614-9.302-3.884-13.226-0.814c-0.193,0.019-0.462,0.035-0.815,0.035c-0.002,0-0.004,0-0.006,0
		c-2.186,0-5.482-0.564-8.67-1.109c-4.012-0.686-8.158-1.396-12.042-1.396c-0.005,0-0.011,0-0.016,0
		c-5.942,0.003-10.664,1.712-14.029,5.079c-3.367,3.367-5.077,8.087-5.081,14.033c-0.001,3.888,0.709,8.041,1.396,12.056
		c0.475,2.775,0.963,5.632,1.081,7.769c-2.135-0.119-4.992-0.607-7.768-1.083c-4.012-0.686-8.158-1.396-12.042-1.396
		c-0.005,0-0.011,0-0.016,0c-5.158,0.002-9.391,1.294-12.62,3.835c-0.47-0.089-0.947-0.158-1.439-0.179
		c-2.813-0.124-5.71-0.251-7.82-0.587c0.565-2.055,1.646-4.74,2.702-7.363c1.521-3.78,3.096-7.688,3.917-11.492
		c1.254-5.808,0.583-10.782-1.995-14.785c-2.577-4.003-6.829-6.673-12.636-7.934c-3.8-0.826-8.01-1.01-12.081-1.189
		c-2.813-0.124-5.71-0.251-7.82-0.587c0.565-2.055,1.646-4.74,2.702-7.363c1.521-3.78,3.096-7.688,3.917-11.492
		c1.254-5.808,0.583-10.782-1.995-14.785c-2.988-4.643-9.177-5.984-13.821-2.994c-4.295,2.766-5.764,8.268-3.594,12.752
		c-0.022,0.193-0.063,0.459-0.139,0.804c-0.462,2.136-1.712,5.242-2.93,8.267c-1.519,3.773-3.09,7.674-3.908,11.466
		c-1.255,5.807-0.584,10.782,1.995,14.789c2.578,4.003,6.828,6.673,12.635,7.934c3.8,0.826,8.01,1.01,12.081,1.189
		c2.813,0.124,5.71,0.251,7.821,0.587c-0.568,2.062-1.651,4.754-2.711,7.385c-1.519,3.773-3.09,7.674-3.908,11.466
		c-1.255,5.807-0.584,10.782,1.993,14.786c2.576,4.005,6.828,6.675,12.637,7.937c2.586,0.562,5.362,0.824,8.155,0.993
		c0.228,2.188,0.585,4.408,0.957,6.602c-8.215,1.818-15.473,6.203-20.886,12.273c-7.222-8.099-17.726-13.211-29.405-13.211
		c-21.729,0-39.405,17.677-39.405,39.405c0,20.135,15.183,36.78,34.699,39.115c-3.36,5.798-5.294,12.521-5.294,19.69
		c0,19.863,14.775,36.331,33.91,39.013c-2.871,5.464-4.505,11.676-4.505,18.265c0,21.728,17.677,39.405,39.405,39.405
		s39.405-17.677,39.405-39.405c0-6.589-1.634-12.801-4.505-18.265c19.135-2.683,33.91-19.151,33.91-39.013
		c0-7.17-1.934-13.892-5.294-19.69C234.286,183.797,249.468,167.152,249.468,147.017z M151.253,282.505
		c-10.7,0-19.405-8.705-19.405-19.405c0-10.7,8.705-19.405,19.405-19.405s19.405,8.705,19.405,19.405
		C170.658,273.8,161.953,282.505,151.253,282.505z M92.442,127.612c10.7,0,19.405,8.705,19.405,19.405
		c0,10.7-8.705,19.405-19.405,19.405s-19.405-8.705-19.405-19.405C73.037,136.317,81.742,127.612,92.442,127.612z M151.253,127.612
		c10.7,0,19.405,8.705,19.405,19.405c0,10.7-8.705,19.405-19.405,19.405s-19.405-8.705-19.405-19.405
		C131.847,136.317,140.552,127.612,151.253,127.612z M121.847,186.416c10.7,0,19.405,8.705,19.405,19.405
		c0,10.7-8.705,19.405-19.405,19.405s-19.405-8.705-19.405-19.405C102.442,195.121,111.147,186.416,121.847,186.416z
		 M180.658,225.226c-10.7,0-19.405-8.705-19.405-19.405c0-10.7,8.705-19.405,19.405-19.405s19.405,8.705,19.405,19.405
		C200.063,216.521,191.358,225.226,180.658,225.226z M210.063,166.422c-10.7,0-19.405-8.705-19.405-19.405
		c0-10.7,8.705-19.405,19.405-19.405s19.405,8.705,19.405,19.405C229.468,157.717,220.763,166.422,210.063,166.422z"/>
</g>
<g>
</g>
<g>
</g>
<g>
</g>
<g>
</g>
<g>
</g>
<g>
</g>
<g>
</g>
<g>
</g>
<g>
</g>
<g>
</g>
<g>
</g>
<g>
</g>
<g>
</g>
<g>
</g>
<g>
</g>
</svg>
