<?xml version="1.0" encoding="iso-8859-1"?>
<!-- Generator: Adobe Illustrator 18.0.0, SVG Export Plug-In . SVG Version: 6.00 Build 0)  -->
<!DOCTYPE svg PUBLIC "-//W3C//DTD SVG 1.1//EN" "http://www.w3.org/Graphics/SVG/1.1/DTD/svg11.dtd">
<svg version="1.1" id="Capa_1" xmlns="http://www.w3.org/2000/svg" xmlns:xlink="http://www.w3.org/1999/xlink" x="0px" y="0px"
	 viewBox="0 0 351.173 351.173" style="enable-background:new 0 0 351.173 351.173;" xml:space="preserve">
<g>
	<path d="M299.921,173.086c-5.523,0-10,4.477-10,10v7.765h-6.885c2.09-23.395,6.973-46.436,14.617-68.777
		c1.045-3.055,0.551-6.426-1.326-9.052c-1.877-2.626-4.907-4.185-8.136-4.185h-59.838l3.674-10.846
		c5.099-15.052-0.636-31.199-12.992-39.944l13.601-40.146c0.851-2.512,0.669-5.259-0.505-7.637
		c-1.175-2.378-3.246-4.192-5.758-5.043l-13.844-4.69c-5.231-1.771-10.908,1.031-12.68,6.263l-13.596,40.13
		c-5.78-0.228-11.558,0.984-16.889,3.617c-8.411,4.154-14.702,11.335-17.712,20.221l-12.899,38.075H62.983
		c-3.229,0-6.258,1.559-8.136,4.185c-1.877,2.626-2.371,5.998-1.326,9.052c7.644,22.341,12.526,45.382,14.617,68.777h-6.885v-7.765
		c0-5.523-4.477-10-10-10s-10,4.477-10,10v35.529c0,5.523,4.477,10,10,10s10-4.477,10-10v-7.765h7.999
		c0.043,2.057,0.066,4.116,0.066,6.177v97.451c0,20.233,16.461,36.694,36.694,36.694h139.15c20.233,0,36.694-16.461,36.694-36.694
		v-97.451c0-2.061,0.023-4.12,0.066-6.177h7.999v7.765c0,5.523,4.477,10,10,10s10-4.477,10-10v-35.529
		C309.921,177.564,305.444,173.086,299.921,173.086z M170.596,77.18c1.296-3.826,4.004-6.917,7.626-8.707
		c3.621-1.788,7.722-2.06,11.547-0.764c0,0,0.001,0,0.001,0c0.001,0,0.002,0,0.003,0.001l13.841,4.689
		c7.897,2.676,12.146,11.277,9.47,19.175l-5.848,17.263h-47.365L170.596,77.18z M261.856,314.479
		c0,9.205-7.489,16.694-16.694,16.694h-139.15c-9.205,0-16.694-7.489-16.694-16.694v-97.451c0-29.944-4.256-59.546-12.667-88.191
		h197.873c-8.411,28.645-12.667,58.247-12.667,88.191V314.479z"/>
</g>
<g>
</g>
<g>
</g>
<g>
</g>
<g>
</g>
<g>
</g>
<g>
</g>
<g>
</g>
<g>
</g>
<g>
</g>
<g>
</g>
<g>
</g>
<g>
</g>
<g>
</g>
<g>
</g>
<g>
</g>
</svg>
