<?xml version="1.0" encoding="iso-8859-1"?>
<!-- Generator: Adobe Illustrator 18.0.0, SVG Export Plug-In . SVG Version: 6.00 Build 0)  -->
<!DOCTYPE svg PUBLIC "-//W3C//DTD SVG 1.1//EN" "http://www.w3.org/Graphics/SVG/1.1/DTD/svg11.dtd">
<svg version="1.1" id="Capa_1" xmlns="http://www.w3.org/2000/svg" xmlns:xlink="http://www.w3.org/1999/xlink" x="0px" y="0px"
	 viewBox="0 0 384.2 384.2" style="enable-background:new 0 0 384.2 384.2;" xml:space="preserve">
<g>
	<path d="M224.971,103.572l-0.633-53.191c-0.007-0.607-0.069-1.212-0.187-1.808l-4.38-22.301l2.218-14.788
		c0.432-2.879-0.413-5.803-2.313-8.009C217.778,1.269,215.011,0,212.1,0h-40c-2.9,0-5.658,1.259-7.558,3.451
		s-2.753,5.101-2.341,7.971l2.129,14.813l-4.41,22.328c-0.119,0.605-0.183,1.221-0.188,1.839l-0.525,53.176
		c-16.274,4.377-28.288,19.261-28.288,36.898V374.2c0,5.523,4.478,10,10,10h102.363c5.522,0,10-4.477,10-10V140.48
		C253.282,122.834,241.256,107.943,224.971,103.572z M233.282,364.2h-82.363V140.476c0-10.037,8.166-18.203,18.203-18.203
		c5.484,0,9.945-4.417,10-9.901l0.6-60.844l4.561-23.09c0.219-1.107,0.248-2.243,0.088-3.36L183.64,20h16.849l-0.753,5.017
		c-0.17,1.133-0.144,2.287,0.077,3.411l4.538,23.104l0.724,60.859c0.064,5.477,4.522,9.881,9.999,9.881
		c10.04,0,18.208,8.168,18.208,18.208V364.2z"/>
</g>
<g>
</g>
<g>
</g>
<g>
</g>
<g>
</g>
<g>
</g>
<g>
</g>
<g>
</g>
<g>
</g>
<g>
</g>
<g>
</g>
<g>
</g>
<g>
</g>
<g>
</g>
<g>
</g>
<g>
</g>
</svg>
