<?xml version="1.0" encoding="iso-8859-1"?>
<!-- Generator: Adobe Illustrator 18.0.0, SVG Export Plug-In . SVG Version: 6.00 Build 0)  -->
<!DOCTYPE svg PUBLIC "-//W3C//DTD SVG 1.1//EN" "http://www.w3.org/Graphics/SVG/1.1/DTD/svg11.dtd">
<svg version="1.1" id="Capa_1" xmlns="http://www.w3.org/2000/svg" xmlns:xlink="http://www.w3.org/1999/xlink" x="0px" y="0px"
	 viewBox="0 0 418.459 418.459" style="enable-background:new 0 0 418.459 418.459;" xml:space="preserve">
<g>
	<path d="M254.637,210.125c-9.008-34.346-13.576-69.765-13.576-105.273V10c0-5.523-4.477-10-10-10h-43.663c-5.523,0-10,4.477-10,10
		v94.852c0,35.509-4.567,70.928-13.576,105.273c-8.784,33.49-13.237,68.026-13.237,102.648v84.984
		c0,11.415,9.287,20.702,20.702,20.702h75.886c11.415,0,20.702-9.287,20.702-20.702v-84.984
		C267.874,278.151,263.42,243.615,254.637,210.125z M247.874,397.757c0,0.387-0.315,0.702-0.702,0.702h-75.886
		c-0.387,0-0.702-0.315-0.702-0.702v-84.984c0-32.911,4.233-65.74,12.583-97.574c9.442-36.001,14.23-73.127,14.23-110.348V20h23.663
		v84.852c0,37.22,4.788,74.346,14.23,110.348c8.35,31.834,12.583,64.663,12.583,97.574V397.757z"/>
</g>
<g>
</g>
<g>
</g>
<g>
</g>
<g>
</g>
<g>
</g>
<g>
</g>
<g>
</g>
<g>
</g>
<g>
</g>
<g>
</g>
<g>
</g>
<g>
</g>
<g>
</g>
<g>
</g>
<g>
</g>
</svg>
