<?xml version="1.0" encoding="iso-8859-1"?>
<!-- Generator: Adobe Illustrator 18.0.0, SVG Export Plug-In . SVG Version: 6.00 Build 0)  -->
<!DOCTYPE svg PUBLIC "-//W3C//DTD SVG 1.1//EN" "http://www.w3.org/Graphics/SVG/1.1/DTD/svg11.dtd">
<svg version="1.1" id="Capa_1" xmlns="http://www.w3.org/2000/svg" xmlns:xlink="http://www.w3.org/1999/xlink" x="0px" y="0px"
	 viewBox="0 0 336.906 336.906" style="enable-background:new 0 0 336.906 336.906;" xml:space="preserve">
<g>
	<path d="M136.866,23.556c-0.57-0.67-1.167-1.317-1.79-1.94c-12.864-12.863-33.794-12.863-46.659,0
		c-6.231,6.232-9.663,14.517-9.663,23.33c0,3.757,0.629,7.416,1.828,10.863c-3.845,1.791-7.389,4.257-10.478,7.345
		c-6.936,6.936-10.755,16.158-10.755,25.966c0,3.595,0.518,7.11,1.51,10.464c-2.959,1.702-5.747,3.809-8.273,6.335
		c-8.751,8.751-12.555,20.602-11.419,32.051c-3.086,1.854-5.999,4.102-8.657,6.76c-10.085,10.085-14.369,23.799-12.875,36.977
		c-1.877,1.398-3.68,2.942-5.383,4.645c-19.002,19.003-19.002,49.923,0,68.927c11.78,11.78,28.551,16.471,44.273,13.264v46.409
		c0,5.523,4.477,10,10,10s10-4.477,10-10v-24.074c1.165,0.476,2.438,0.743,3.774,0.743c5.523,0,10-4.477,10-10v-9.852
		c8.803-0.974,17.33-4.822,24.022-11.515c12.293-12.293,14.959-30.623,8.002-45.537c0.648-0.564,1.287-1.145,1.903-1.761
		c12.219-12.219,14.192-30.857,5.931-45.156c0.703-0.594,1.391-1.213,2.052-1.875c6.276-6.277,9.733-14.623,9.733-23.499
		c0-6.811-2.042-13.304-5.824-18.795c2.433-1.356,4.721-3.056,6.779-5.114c11.4-11.4,11.999-29.566,1.811-41.686
		c2.918-1.344,5.647-3.213,8.038-5.604c10.904-10.905,10.904-28.647,0-39.552C149.921,26.85,143.541,24.011,136.866,23.556z
		 M102.18,246.113c-7.546,7.547-19.72,7.935-27.716,0.885c-1.872-1.65-4.234-2.5-6.616-2.5c-1.695,0-3.399,0.43-4.942,1.308
		c-11.2,6.371-25.392,4.451-34.511-4.668c-11.205-11.206-11.205-29.438,0-40.642c11.205-11.205,29.438-11.205,40.642-0.001
		c1.876,1.877,3.488,4.014,4.791,6.351c2.073,3.722,6.278,5.721,10.472,4.981c6.527-1.152,13.21,0.949,17.88,5.619
		C110.083,225.349,110.083,238.21,102.18,246.113z M112.085,198.815c-0.159,0.159-0.331,0.297-0.494,0.448
		c-6.94-5.055-15.336-7.756-23.929-7.746c-1.372-1.824-2.869-3.55-4.483-5.165c-11.83-11.829-28.276-16.29-43.591-13.393
		c0.749-5.158,3.104-10.126,7.064-14.087c9.77-9.771,25.668-9.771,35.438-0.001c1.637,1.637,3.042,3.5,4.178,5.539
		c2.074,3.721,6.277,5.723,10.472,4.98c5.599-0.988,11.338,0.814,15.345,4.822C118.868,180.996,118.868,192.033,112.085,198.815z
		 M79.349,89.121c0-4.467,1.739-8.666,4.898-11.824c3.158-3.159,7.357-4.898,11.824-4.898c4.467,0,8.666,1.739,11.825,4.899
		c1.091,1.09,2.029,2.333,2.788,3.695c2.074,3.722,6.28,5.723,10.472,4.981c3.506-0.619,7.096,0.509,9.602,3.014
		c4.243,4.243,4.243,11.146,0,15.389c-4.05,4.052-10.583,4.26-14.874,0.477c-1.872-1.65-4.234-2.5-6.616-2.5
		c-1.245,0-2.494,0.237-3.681,0.708c-7.38-5.948-16.407-8.861-25.406-8.748C79.642,92.658,79.349,90.913,79.349,89.121z
		 M94.632,120.062c1.288,1.288,2.395,2.755,3.291,4.362c2.073,3.721,6.279,5.719,10.472,4.98c4.262-0.75,8.626,0.619,11.674,3.667
		c2.5,2.499,3.876,5.822,3.876,9.357c0,3.534-1.376,6.857-3.876,9.356c-0.741,0.741-1.555,1.363-2.413,1.891
		c-5.374-2.919-11.407-4.495-17.564-4.548c-1.189-1.547-2.477-3.016-3.858-4.397c-9.612-9.612-22.522-13.952-35.121-13.046
		c0.501-4.25,2.362-8.369,5.616-11.623C74.422,112.368,86.94,112.369,94.632,120.062z M140.606,57.086
		c-2.965,2.966-7.748,3.121-10.888,0.351c-1.871-1.65-4.234-2.5-6.616-2.5c-1.695,0-3.399,0.43-4.942,1.308
		c-1.053,0.599-2.167,1.027-3.304,1.306c-4.116-2.459-8.673-4.077-13.456-4.768c-1.708-2.246-2.645-4.967-2.645-7.837
		c0-3.47,1.351-6.733,3.806-9.187c5.065-5.065,13.308-5.066,18.373-0.001c0.849,0.849,1.578,1.816,2.167,2.874
		c2.073,3.722,6.277,5.722,10.473,4.982c2.569-0.455,5.198,0.371,7.033,2.207C143.713,48.926,143.713,53.98,140.606,57.086z"/>
	<path d="M322.654,186.354c-1.695-1.695-3.495-3.248-5.382-4.657c1.49-13.175-2.794-26.884-12.876-36.966
		c-2.658-2.658-5.571-4.907-8.657-6.76c1.136-11.449-2.668-23.3-11.419-32.051c-2.503-2.503-5.285-4.621-8.27-6.345
		c0.99-3.351,1.507-6.862,1.507-10.454c0-9.809-3.82-19.03-10.756-25.966c-3.089-3.088-6.632-5.554-10.477-7.345
		c1.198-3.447,1.828-7.106,1.828-10.864c0-8.813-3.432-17.098-9.663-23.33c-6.232-6.231-14.518-9.663-23.33-9.663
		s-17.098,3.432-23.328,9.662c-0.623,0.623-1.221,1.271-1.791,1.941c-6.675,0.456-13.055,3.294-17.882,8.121
		c-10.904,10.905-10.904,28.647,0,39.552c2.391,2.391,5.12,4.26,8.038,5.604c-10.188,12.12-9.589,30.286,1.811,41.687
		c2.06,2.06,4.35,3.76,6.785,5.117c-8.878,12.936-7.582,30.804,3.903,42.29c0.661,0.661,1.349,1.28,2.052,1.875
		c-8.26,14.299-6.288,32.937,5.931,45.156c0.616,0.616,1.255,1.197,1.904,1.762c-6.957,14.914-4.291,33.243,8.002,45.537
		c6.694,6.693,15.219,10.541,24.022,11.515v9.852c0,5.523,4.478,10,10,10c1.336,0,2.609-0.267,3.774-0.743v24.074
		c0,5.523,4.478,10,10,10s10-4.477,10-10v-46.41c15.724,3.207,32.494-1.484,44.273-13.264
		C341.657,236.276,341.657,205.356,322.654,186.354z M274.001,245.806c-3.713-2.112-8.354-1.633-11.558,1.192
		c-7.997,7.05-20.171,6.662-27.717-0.884c-7.903-7.904-7.903-20.765,0-28.668c3.827-3.828,9.007-5.929,14.346-5.929
		c1.174,0,2.357,0.102,3.534,0.31c4.198,0.739,8.4-1.26,10.474-4.982c1.301-2.336,2.912-4.472,4.79-6.35
		c5.428-5.428,12.645-8.417,20.321-8.417c7.676,0,14.893,2.989,20.32,8.417c11.205,11.205,11.205,29.437,0,40.642
		C299.392,250.257,285.2,252.177,274.001,245.806z M196.3,45.819c1.504-1.503,3.54-2.329,5.641-2.329
		c0.463,0,0.929,0.04,1.393,0.122c4.198,0.739,8.4-1.261,10.475-4.983c0.588-1.057,1.316-2.022,2.165-2.871
		c2.453-2.454,5.716-3.805,9.187-3.805s6.733,1.352,9.188,3.806s3.806,5.717,3.806,9.187c0,2.871-0.937,5.591-2.646,7.837
		c-4.782,0.691-9.339,2.309-13.454,4.768c-1.138-0.279-2.252-0.706-3.305-1.305c-3.71-2.112-8.354-1.634-11.558,1.191
		c-3.142,2.77-7.923,2.616-10.889-0.35C193.194,53.98,193.194,48.926,196.3,45.819z M257.557,89.121c0,1.786-0.29,3.524-0.826,5.175
		c-0.169-0.002-0.336-0.012-0.505-0.012c-9.175,0-17.871,3.094-24.909,8.779c-3.458-1.371-7.445-0.721-10.294,1.792
		c-4.291,3.784-10.825,3.574-14.874-0.476c-4.242-4.243-4.242-11.146,0-15.389c2.054-2.054,4.834-3.181,7.701-3.181
		c0.631,0,1.268,0.055,1.9,0.167c4.19,0.738,8.398-1.259,10.472-4.981c0.759-1.361,1.696-2.604,2.789-3.696
		c3.158-3.159,7.357-4.898,11.824-4.898c4.466,0,8.665,1.739,11.823,4.898C255.817,80.455,257.557,84.654,257.557,89.121z
		 M240.672,144.732c-1.38,1.38-2.668,2.849-3.856,4.396c-6.156,0.053-12.19,1.629-17.564,4.548c-0.858-0.529-1.673-1.15-2.413-1.891
		c-5.159-5.16-5.159-13.555-0.001-18.714c2.498-2.498,5.881-3.869,9.366-3.869c0.768,0,1.54,0.066,2.31,0.202
		c4.19,0.74,8.397-1.259,10.472-4.98c0.896-1.607,2.002-3.074,3.29-4.362c7.692-7.692,20.211-7.693,27.903,0
		c3.254,3.254,5.116,7.374,5.617,11.624C263.195,130.779,250.285,135.12,240.672,144.732z M224.82,174.214
		c3.284-3.284,7.729-5.087,12.311-5.087c1.009,0,2.024,0.087,3.034,0.266c4.197,0.737,8.397-1.259,10.472-4.979
		c1.137-2.039,2.543-3.903,4.179-5.539c9.77-9.771,25.667-9.771,35.438,0c3.954,3.954,6.307,8.912,7.06,14.061
		c-2.977-0.561-6.027-0.856-9.123-0.856c-13.02,0-25.259,5.07-34.464,14.275c-1.614,1.615-3.112,3.341-4.483,5.165
		c-0.056,0-0.111,0-0.166,0c-8.534,0-16.868,2.715-23.765,7.745c-0.163-0.151-0.335-0.289-0.493-0.448
		C218.038,192.033,218.038,180.996,224.82,174.214z"/>
</g>
<g>
</g>
<g>
</g>
<g>
</g>
<g>
</g>
<g>
</g>
<g>
</g>
<g>
</g>
<g>
</g>
<g>
</g>
<g>
</g>
<g>
</g>
<g>
</g>
<g>
</g>
<g>
</g>
<g>
</g>
</svg>
