<?xml version="1.0" encoding="iso-8859-1"?>
<!-- Generator: Adobe Illustrator 18.0.0, SVG Export Plug-In . SVG Version: 6.00 Build 0)  -->
<!DOCTYPE svg PUBLIC "-//W3C//DTD SVG 1.1//EN" "http://www.w3.org/Graphics/SVG/1.1/DTD/svg11.dtd">
<svg version="1.1" id="Capa_1" xmlns="http://www.w3.org/2000/svg" xmlns:xlink="http://www.w3.org/1999/xlink" x="0px" y="0px"
	 viewBox="0 0 376.183 376.183" style="enable-background:new 0 0 376.183 376.183;" xml:space="preserve">
<g>
	<path d="M313.091,0h-250c-5.522,0-10,4.477-10,10v336c0,5.523,4.478,10,10,10h25.755v10.183c0,5.523,4.478,10,10,10s10-4.477,10-10
		V356h158.49v10.183c0,5.523,4.478,10,10,10s10-4.477,10-10V356h25.755c5.522,0,10-4.477,10-10V10
		C323.091,4.477,318.614,0,313.091,0z M73.091,73.198h230v218.457h-230V73.198z M303.091,20v33.198h-230V20H303.091z M73.091,336
		v-24.346h230V336H73.091z"/>
	<path d="M98.846,92.254c-5.522,0-10,4.477-10,10v151.492c0,5.523,4.478,10,10,10s10-4.477,10-10V102.254
		C108.846,96.731,104.369,92.254,98.846,92.254z"/>
	<circle cx="236.345" cy="37.422" r="8.042"/>
	<circle cx="273.012" cy="37.422" r="8.042"/>
</g>
<g>
</g>
<g>
</g>
<g>
</g>
<g>
</g>
<g>
</g>
<g>
</g>
<g>
</g>
<g>
</g>
<g>
</g>
<g>
</g>
<g>
</g>
<g>
</g>
<g>
</g>
<g>
</g>
<g>
</g>
</svg>
