<?xml version="1.0" encoding="iso-8859-1"?>
<!-- Generator: Adobe Illustrator 18.0.0, SVG Export Plug-In . SVG Version: 6.00 Build 0)  -->
<!DOCTYPE svg PUBLIC "-//W3C//DTD SVG 1.1//EN" "http://www.w3.org/Graphics/SVG/1.1/DTD/svg11.dtd">
<svg version="1.1" id="Capa_1" xmlns="http://www.w3.org/2000/svg" xmlns:xlink="http://www.w3.org/1999/xlink" x="0px" y="0px"
	 viewBox="0 0 294.188 294.188" style="enable-background:new 0 0 294.188 294.188;" xml:space="preserve">
<g>
	<path d="M284.188,2.537H10c-5.523,0-10,4.478-10,10v269.115c0,5.522,4.477,10,10,10s10-4.478,10-10v-29.194h254.188v29.194
		c0,5.522,4.477,10,10,10s10-4.478,10-10V12.537C294.188,7.014,289.711,2.537,284.188,2.537z M228.731,191.761
		c-12.023,0-21.77,9.747-21.77,21.77c0,8.112,4.44,15.182,11.019,18.927h-32.922c6.579-3.745,11.019-10.815,11.019-18.927
		c0-12.023-9.747-21.77-21.77-21.77c-12.023,0-21.77,9.747-21.77,21.77c0,8.112,4.44,15.182,11.019,18.927h-32.922
		c6.579-3.745,11.019-10.815,11.019-18.927c0-12.023-9.747-21.77-21.77-21.77c-12.023,0-21.77,9.747-21.77,21.77
		c0,8.112,4.44,15.182,11.019,18.927H76.209c6.579-3.745,11.019-10.815,11.019-18.927c0-12.023-9.747-21.77-21.77-21.77
		c-12.023,0-21.77,9.747-21.77,21.77c0,8.112,4.44,15.182,11.019,18.927H20V177.07h254.188v55.388h-34.707
		c6.579-3.745,11.019-10.815,11.019-18.927C250.5,201.508,240.754,191.761,228.731,191.761z M274.188,101.683v55.387h-34.705
		c6.578-3.745,11.017-10.815,11.017-18.926c0-12.023-9.747-21.77-21.77-21.77c-12.023,0-21.77,9.747-21.77,21.77
		c0,8.111,4.439,15.181,11.017,18.926h-32.919c6.578-3.745,11.017-10.815,11.017-18.926c0-12.023-9.747-21.77-21.77-21.77
		c-12.023,0-21.77,9.747-21.77,21.77c0,8.111,4.439,15.181,11.017,18.926h-32.919c6.578-3.745,11.017-10.815,11.017-18.926
		c0-12.023-9.747-21.77-21.77-21.77c-12.023,0-21.77,9.747-21.77,21.77c0,8.111,4.439,15.181,11.017,18.926H76.211
		c6.578-3.745,11.017-10.815,11.017-18.926c0-12.023-9.747-21.77-21.77-21.77c-12.023,0-21.77,9.747-21.77,21.77
		c0,8.111,4.439,15.181,11.017,18.926H20v-55.387H274.188z M274.188,22.537v59.146h-34.705c6.578-3.745,11.017-10.815,11.017-18.926
		c0-12.023-9.747-21.77-21.77-21.77c-12.023,0-21.77,9.747-21.77,21.77c0,8.111,4.439,15.181,11.017,18.926h-32.919
		c6.578-3.745,11.017-10.815,11.017-18.926c0-12.023-9.747-21.77-21.77-21.77c-12.023,0-21.77,9.747-21.77,21.77
		c0,8.111,4.439,15.181,11.017,18.926h-32.919c6.578-3.745,11.017-10.815,11.017-18.926c0-12.023-9.747-21.77-21.77-21.77
		c-12.023,0-21.77,9.747-21.77,21.77c0,8.111,4.439,15.181,11.017,18.926H76.21c6.578-3.745,11.017-10.815,11.017-18.926
		c0-12.023-9.747-21.77-21.77-21.77c-12.023,0-21.77,9.747-21.77,21.77c0,8.111,4.439,15.181,11.017,18.926H20V22.537H274.188z"/>
</g>
<g>
</g>
<g>
</g>
<g>
</g>
<g>
</g>
<g>
</g>
<g>
</g>
<g>
</g>
<g>
</g>
<g>
</g>
<g>
</g>
<g>
</g>
<g>
</g>
<g>
</g>
<g>
</g>
<g>
</g>
</svg>
