<?xml version="1.0" encoding="iso-8859-1"?>
<!-- Generator: Adobe Illustrator 18.0.0, SVG Export Plug-In . SVG Version: 6.00 Build 0)  -->
<!DOCTYPE svg PUBLIC "-//W3C//DTD SVG 1.1//EN" "http://www.w3.org/Graphics/SVG/1.1/DTD/svg11.dtd">
<svg version="1.1" id="Capa_1" xmlns="http://www.w3.org/2000/svg" xmlns:xlink="http://www.w3.org/1999/xlink" x="0px" y="0px"
	 viewBox="0 0 294.189 294.189" style="enable-background:new 0 0 294.189 294.189;" xml:space="preserve">
<g>
	<path d="M284.189,2.537H10c-5.523,0-10,4.478-10,10v269.115c0,5.522,4.477,10,10,10s10-4.478,10-10v-10.085h254.189v10.085
		c0,5.522,4.478,10,10,10s10-4.478,10-10V12.537C294.189,7.014,289.711,2.537,284.189,2.537z M255.713,224.412
		c-5.522,0-10,4.478-10,10c0,9.459-7.695,17.155-17.154,17.155c-9.46,0-17.155-7.696-17.155-17.155c0-5.522-4.478-10-10-10
		s-10,4.478-10,10c0,9.459-7.695,17.155-17.154,17.155s-17.155-7.696-17.155-17.155c0-5.522-4.478-10-10-10c-5.523,0-10,4.478-10,10
		c0,9.459-7.696,17.155-17.155,17.155s-17.155-7.696-17.155-17.155c0-5.522-4.477-10-10-10s-10,4.478-10,10
		c0,9.459-7.696,17.155-17.155,17.155c-9.459,0-17.155-7.696-17.155-17.155c0-5.522-4.477-10-10-10s-10,4.478-10,10
		c0,6.186,1.528,12.019,4.214,17.155H20v-72.689h254.189v72.689H261.5c2.686-5.136,4.214-10.969,4.214-17.155
		C265.713,228.889,261.236,224.412,255.713,224.412z M255.713,131.722c-5.522,0-10,4.478-10,10c0,9.459-7.695,17.155-17.154,17.155
		c-9.46,0-17.155-7.696-17.155-17.155c0-5.522-4.478-10-10-10s-10,4.478-10,10c0,9.459-7.695,17.155-17.154,17.155
		s-17.155-7.696-17.155-17.155c0-5.522-4.478-10-10-10c-5.523,0-10,4.478-10,10c0,9.459-7.696,17.155-17.155,17.155
		s-17.155-7.696-17.155-17.155c0-5.522-4.477-10-10-10s-10,4.478-10,10c0,9.459-7.696,17.155-17.155,17.155
		c-9.459,0-17.155-7.696-17.155-17.155c0-5.522-4.477-10-10-10s-10,4.478-10,10c0,6.186,1.528,12.019,4.214,17.155H20V96.674
		h254.189v62.204H261.5c2.686-5.136,4.214-10.969,4.214-17.155C265.713,136.2,261.236,131.722,255.713,131.722z M274.189,76.674
		H261.5c2.686-5.136,4.214-10.969,4.214-17.155c0-5.522-4.478-10-10-10s-10,4.478-10,10c0,9.459-7.695,17.155-17.154,17.155
		c-9.46,0-17.155-7.696-17.155-17.155c0-5.522-4.478-10-10-10s-10,4.478-10,10c0,9.459-7.695,17.155-17.154,17.155
		s-17.155-7.696-17.155-17.155c0-5.522-4.478-10-10-10c-5.523,0-10,4.478-10,10c0,9.459-7.696,17.155-17.155,17.155
		s-17.155-7.696-17.155-17.155c0-5.522-4.477-10-10-10s-10,4.478-10,10c0,9.459-7.696,17.155-17.155,17.155
		c-9.459,0-17.155-7.696-17.155-17.155c0-5.522-4.477-10-10-10s-10,4.478-10,10c0,6.186,1.528,12.019,4.214,17.155H20V22.537
		h254.189V76.674z"/>
</g>
<g>
</g>
<g>
</g>
<g>
</g>
<g>
</g>
<g>
</g>
<g>
</g>
<g>
</g>
<g>
</g>
<g>
</g>
<g>
</g>
<g>
</g>
<g>
</g>
<g>
</g>
<g>
</g>
<g>
</g>
</svg>
