<?xml version="1.0" encoding="iso-8859-1"?>
<!-- Generator: Adobe Illustrator 18.0.0, SVG Export Plug-In . SVG Version: 6.00 Build 0)  -->
<!DOCTYPE svg PUBLIC "-//W3C//DTD SVG 1.1//EN" "http://www.w3.org/Graphics/SVG/1.1/DTD/svg11.dtd">
<svg version="1.1" id="Capa_1" xmlns="http://www.w3.org/2000/svg" xmlns:xlink="http://www.w3.org/1999/xlink" x="0px" y="0px"
	 viewBox="0 0 349.867 349.867" style="enable-background:new 0 0 349.867 349.867;" xml:space="preserve">
<g>
	<path d="M300.776,92.542c-31.147-39.38-74.976-67.75-123.413-79.883c-1.596-0.399-3.264-0.399-4.859,0
		C124.066,24.792,80.238,53.162,49.091,92.542C16.976,133.147,0,182.033,0,233.914v93.593c0,5.523,4.478,10,10,10h329.867
		c5.522,0,10-4.477,10-10v-93.593C349.867,182.033,332.892,133.147,300.776,92.542z M329.867,311.718l-4.836-9.687l4.784-0.906
		c0.018-0.003,0.035-0.009,0.053-0.012V311.718z M244.836,157.224l-2.323,0.44c-11.402,2.158-22.967,2.159-34.369,0l-2.323-0.439
		v-17.691l2.323-0.439c11.403-2.159,22.966-2.159,34.369,0l2.323,0.439V157.224z M214.98,183.42l6.157-1.166
		c16.031-3.035,32.291-3.036,48.322,0l6.157,1.166v30.242l-6.157,1.166c-16.031,3.035-32.291,3.035-48.322,0l-6.157-1.166V183.42z
		 M317.954,283.015l-9.729,1.841c-20.345,3.852-40.975,3.851-61.317,0l-9.729-1.841v-41.932l9.729-1.841
		c20.343-3.852,40.973-3.852,61.317,0l9.729,1.841V283.015z M250.603,305.748c8.962,1.326,17.962,1.999,26.963,1.999
		c9.002,0,18.003-0.673,26.965-1.999l5.871,11.76h-65.671L250.603,305.748z M174.934,32.684
		c87.8,23.108,149.939,100.119,154.636,190.242l-17.624-3.336c-5.428-1.027-10.874-1.802-16.329-2.34v-42.115
		c0-4.806-3.418-8.932-8.14-9.826l-14.297-2.707c-2.776-0.525-5.559-0.962-8.345-1.33v-30.024c0-4.806-3.418-8.932-8.141-9.826
		l-10.463-1.98c-13.871-2.625-27.938-2.625-41.809,0l-10.463,1.98c-4.723,0.894-8.141,5.02-8.141,9.826v34.26
		c0,4.806,3.418,8.932,8.14,9.826l1.021,0.193v46.419c0,4.806,3.418,8.932,8.14,9.826l14.06,2.662V291.3
		c0,4.806,3.418,8.932,8.14,9.826l4.785,0.906l-7.054,14.129c-0.22,0.441-0.392,0.892-0.542,1.347h-95.148
		c-0.15-0.455-0.322-0.906-0.542-1.347l-7.054-14.129l4.785-0.906c4.722-0.894,8.14-5.02,8.14-9.826v-56.866l14.06-2.662
		c4.722-0.894,8.14-5.02,8.14-9.826v-46.214l2.1-0.397c4.722-0.894,8.14-5.02,8.14-9.826v-34.26c0-4.806-3.418-8.932-8.141-9.826
		l-10.463-1.98c-13.871-2.625-27.938-2.625-41.809,0l-10.463,1.98c-4.723,0.894-8.141,5.02-8.141,9.826v29.884
		c-3.147,0.392-6.289,0.877-9.424,1.47l-14.297,2.707c-4.722,0.894-8.14,5.02-8.14,9.826v42.115
		c-5.455,0.538-10.901,1.313-16.329,2.341l-17.624,3.336C24.994,132.803,87.133,55.792,174.934,32.684z M20,301.113
		c0.018,0.003,0.035,0.009,0.053,0.012l4.784,0.906L20,311.718V301.113z M145.126,157.224l-2.323,0.44
		c-11.402,2.158-22.967,2.159-34.369,0l-2.323-0.439v-17.691l2.323-0.439c11.404-2.159,22.967-2.159,34.369,0l2.323,0.439V157.224z
		 M128.729,182.254l6.157,1.166v30.242l-6.157,1.166c-16.031,3.035-32.291,3.035-48.322,0l-6.157-1.166V183.42l6.157-1.166
		C96.438,179.219,112.697,179.218,128.729,182.254z M102.959,239.242l9.729,1.841v41.932l-9.729,1.841
		c-20.345,3.852-40.975,3.851-61.317,0l-9.729-1.841v-41.932l9.729-1.841C61.984,235.39,82.614,235.39,102.959,239.242z
		 M45.335,305.747c8.963,1.326,17.963,1.999,26.964,1.999c9.002,0,18.002-0.673,26.964-1.999l5.871,11.76H39.464L45.335,305.747z"/>
</g>
<g>
</g>
<g>
</g>
<g>
</g>
<g>
</g>
<g>
</g>
<g>
</g>
<g>
</g>
<g>
</g>
<g>
</g>
<g>
</g>
<g>
</g>
<g>
</g>
<g>
</g>
<g>
</g>
<g>
</g>
</svg>
