<?xml version="1.0" encoding="iso-8859-1"?>
<!-- Generator: Adobe Illustrator 18.0.0, SVG Export Plug-In . SVG Version: 6.00 Build 0)  -->
<!DOCTYPE svg PUBLIC "-//W3C//DTD SVG 1.1//EN" "http://www.w3.org/Graphics/SVG/1.1/DTD/svg11.dtd">
<svg version="1.1" id="Capa_1" xmlns="http://www.w3.org/2000/svg" xmlns:xlink="http://www.w3.org/1999/xlink" x="0px" y="0px"
	 viewBox="0 0 310.878 310.878" style="enable-background:new 0 0 310.878 310.878;" xml:space="preserve">
<g>
	<path d="M259.459,59.714L249.696,8.14C248.802,3.418,244.676,0,239.87,0H71.009c-4.806,0-8.932,3.418-9.826,8.14L51.42,59.714
		c-12.024,63.519-12.024,127.932,0,191.45l9.763,51.574c0.894,4.722,5.02,8.14,9.826,8.14H239.87c4.806,0,8.932-3.418,9.826-8.14
		l9.763-51.574C271.483,187.646,271.483,123.232,259.459,59.714z M79.293,20h152.292l4.175,22.057H75.118L79.293,20z M71.071,63.434
		l0.261-1.377h168.215l0.261,1.377c0.734,3.879,1.421,7.762,2.062,11.647H69.009C69.65,71.195,70.337,67.313,71.071,63.434z
		 M231.585,290.878H79.293l-3.815-20.155h159.923L231.585,290.878z M239.807,247.444l-0.621,3.279H71.692l-0.621-3.279
		c-0.59-3.114-1.141-6.231-1.671-9.35h172.077C240.949,241.213,240.397,244.33,239.807,247.444z M244.462,218.095H66.417
		c-5.248-40.915-5.34-82.089-0.284-123.014h178.614C249.802,136.005,249.71,177.18,244.462,218.095z"/>
</g>
<g>
</g>
<g>
</g>
<g>
</g>
<g>
</g>
<g>
</g>
<g>
</g>
<g>
</g>
<g>
</g>
<g>
</g>
<g>
</g>
<g>
</g>
<g>
</g>
<g>
</g>
<g>
</g>
<g>
</g>
</svg>
