<?xml version="1.0" encoding="iso-8859-1"?>
<!-- Generator: Adobe Illustrator 18.0.0, SVG Export Plug-In . SVG Version: 6.00 Build 0)  -->
<!DOCTYPE svg PUBLIC "-//W3C//DTD SVG 1.1//EN" "http://www.w3.org/Graphics/SVG/1.1/DTD/svg11.dtd">
<svg version="1.1" id="Capa_1" xmlns="http://www.w3.org/2000/svg" xmlns:xlink="http://www.w3.org/1999/xlink" x="0px" y="0px"
	 viewBox="0 0 370.659 370.659" style="enable-background:new 0 0 370.659 370.659;" xml:space="preserve">
<g>
	<path d="M138.162,140.478h93.289c5.523,0,10-4.478,10-10s-4.477-10-10-10h-36.645v-3.121h2.329c5.523,0,10-4.478,10-10
		s-4.477-10-10-10h-2.329v-3.399h2.329c5.523,0,10-4.478,10-10s-4.477-10-10-10h-2.329v-4.163h2.329c5.523,0,10-4.478,10-10
		s-4.477-10-10-10h-2.329v-3.399h2.329c5.523,0,10-4.478,10-10s-4.477-10-10-10h-2.329V20h7.147c5.523,0,10-4.478,10-10
		s-4.477-10-10-10h-34.295c-5.523,0-10,4.478-10,10s4.477,10,10,10h7.147v6.395h-2.329c-5.523,0-10,4.478-10,10s4.477,10,10,10
		h2.329v3.399h-2.329c-5.523,0-10,4.478-10,10s4.477,10,10,10h2.329v4.163h-2.329c-5.523,0-10,4.478-10,10s4.477,10,10,10h2.329
		v3.399h-2.329c-5.523,0-10,4.478-10,10s4.477,10,10,10h2.329v3.121h-36.645c-5.523,0-10,4.478-10,10
		S132.639,140.478,138.162,140.478z"/>
	<path d="M281.257,356.867l-21.603-52.765c12.795-46.14,12.343-94.65-1.362-140.622c-1.264-4.238-5.161-7.144-9.583-7.144H121.039
		c-4.422,0-8.32,2.905-9.583,7.144c-13.835,46.408-14.16,95.403-0.988,141.935l-21.065,51.452
		c-2.093,5.111,0.354,10.951,5.465,13.044c1.241,0.508,2.523,0.748,3.785,0.748c3.939,0,7.674-2.344,9.258-6.214l19.839-48.458
		h21.583l28.469,28.47c1.875,1.875,4.419,2.929,7.071,2.929s5.196-1.054,7.071-2.929l28.469-28.47h22.494l19.839,48.458
		c1.585,3.871,5.319,6.214,9.258,6.214c1.262,0,2.545-0.241,3.786-0.748C280.902,367.818,283.349,361.979,281.257,356.867z
		 M241.134,295.987h-5.432v-119.65h5.432C251.516,215.628,251.516,256.696,241.134,295.987z M194.874,295.987v-119.65h20.828v119.65
		H194.874z M154.047,295.987v-119.65h20.827v119.65H154.047z M134.047,176.337v119.65h-5.432c-10.383-39.291-10.383-80.359,0-119.65
		H134.047z M184.874,323.243l-7.256-7.256h14.511L184.874,323.243z"/>
</g>
<g>
</g>
<g>
</g>
<g>
</g>
<g>
</g>
<g>
</g>
<g>
</g>
<g>
</g>
<g>
</g>
<g>
</g>
<g>
</g>
<g>
</g>
<g>
</g>
<g>
</g>
<g>
</g>
<g>
</g>
</svg>
