<?xml version="1.0" encoding="iso-8859-1"?>
<!-- Generator: Adobe Illustrator 18.0.0, SVG Export Plug-In . SVG Version: 6.00 Build 0)  -->
<!DOCTYPE svg PUBLIC "-//W3C//DTD SVG 1.1//EN" "http://www.w3.org/Graphics/SVG/1.1/DTD/svg11.dtd">
<svg version="1.1" id="Capa_1" xmlns="http://www.w3.org/2000/svg" xmlns:xlink="http://www.w3.org/1999/xlink" x="0px" y="0px"
	 viewBox="0 0 360.227 360.227" style="enable-background:new 0 0 360.227 360.227;" xml:space="preserve">
<g>
	<path d="M230.77,187.224l7.695-31.083c1.032-4.17-0.714-8.534-4.338-10.84l-13.203-8.402c-8.91-5.669-14.475-15.077-15.218-25.499
		c19.548-9.521,33.052-29.589,33.052-52.755C238.758,26.308,212.451,0,180.114,0s-58.645,26.308-58.645,58.645
		c0,23.166,13.504,43.234,33.052,52.755c-0.743,10.422-6.308,19.83-15.218,25.499l-13.203,8.401
		c-3.625,2.306-5.371,6.669-4.338,10.84l7.695,31.083c-4.559,0.931-7.988,4.963-7.988,9.797c0,5.523,4.477,10,10,10h2.889
		l4.022,16.245c-2.411,1.826-3.976,4.711-3.976,7.968c0,4.973,3.634,9.086,8.389,9.858l3.667,14.813
		c-4.06,1.272-7.006,5.063-7.006,9.543c0,5.523,4.477,10,10,10h1.844l19.108,77.182c1.105,4.462,5.11,7.597,9.707,7.597
		s8.602-3.134,9.707-7.597l19.108-77.182h1.844c5.523,0,10-4.477,10-10c0-4.48-2.946-8.271-7.006-9.543l3.667-14.813
		c4.755-0.772,8.389-4.885,8.389-9.858c0-3.258-1.565-6.142-3.976-7.968l4.022-16.245h2.889c5.523,0,10-4.477,10-10
		C238.758,192.187,235.329,188.155,230.77,187.224z M198.547,143.737h-36.866c6.096-7.019,10.249-15.52,11.996-24.729h12.874
		C188.298,128.217,192.45,136.718,198.547,143.737z M141.469,58.645c0-21.309,17.336-38.645,38.645-38.645
		s38.645,17.336,38.645,38.645s-17.336,38.645-38.645,38.645S141.469,79.953,141.469,58.645z M180.114,308.615l-8.211-33.167h16.422
		L180.114,308.615z M193.276,255.448h-26.324l-3.519-14.214h33.362L193.276,255.448z M201.746,221.235h-43.265l-3.519-14.213h50.302
		L201.746,221.235z M210.216,187.021h-60.205l-5.764-23.284h71.734L210.216,187.021z"/>
	<path d="M213.759,58.645c0-18.552-15.093-33.645-33.645-33.645s-33.645,15.093-33.645,33.645s15.093,33.645,33.645,33.645
		S213.759,77.196,213.759,58.645z M166.469,58.645c0-7.524,6.121-13.645,13.645-13.645s13.645,6.121,13.645,13.645
		s-6.121,13.645-13.645,13.645S166.469,66.168,166.469,58.645z"/>
</g>
<g>
</g>
<g>
</g>
<g>
</g>
<g>
</g>
<g>
</g>
<g>
</g>
<g>
</g>
<g>
</g>
<g>
</g>
<g>
</g>
<g>
</g>
<g>
</g>
<g>
</g>
<g>
</g>
<g>
</g>
</svg>
