<?xml version="1.0" encoding="UTF-8" standalone="no"?><!DOCTYPE svg PUBLIC "-//W3C//DTD SVG 1.1//EN" "http://www.w3.org/Graphics/SVG/1.1/DTD/svg11.dtd"><svg width="100%" height="100%" viewBox="0 0 568 520" version="1.1" xmlns="http://www.w3.org/2000/svg" xmlns:xlink="http://www.w3.org/1999/xlink" xml:space="preserve" xmlns:serif="http://www.serif.com/" style="fill-rule:evenodd;clip-rule:evenodd;stroke-linejoin:round;stroke-miterlimit:1.41421;"><g id="Señor-Wino-I" serif:id="Señor Wino I"><path d="M221.762,17.188l0,-17.188c-0.643,0 -1.065,0.022 -1.259,0.028l-0.119,0.003l0.213,7.216l0,-7.216l-0.213,0l0.213,7.216l0,-7.216l-0.06,0l-0.034,0c-60.897,0.335 -116.125,25.288 -155.962,65.353c-39.863,40.038 -64.55,95.41 -64.541,156.385c-0.009,60.969 24.678,116.344 64.541,156.381c39.837,40.066 95.065,65.022 155.962,65.356l0.094,0l0,-7.218l-0.213,7.215l0.213,0.003l0,-7.218l-0.213,7.215l0.06,0c0.15,0.006 0.597,0.031 1.318,0.035c61.185,0.006 116.735,-24.854 156.813,-64.96c40.106,-40.075 64.966,-95.628 64.956,-156.809c0.01,-61.181 -24.85,-116.738 -64.956,-156.816c-40.078,-40.103 -95.628,-64.962 -156.813,-64.953l0,34.375c51.801,0.006 98.541,20.947 132.507,54.888c33.937,33.965 54.881,80.703 54.887,132.506c-0.006,51.797 -20.947,98.537 -54.887,132.503c-33.966,33.941 -80.706,54.881 -132.507,54.891l0,7.309l0.219,-7.309l-0.219,0l0,7.309l0.219,-7.309l-0.059,0c-0.153,-0.007 -0.603,-0.032 -1.325,-0.032l0.097,0c-51.55,-0.3 -98.025,-21.322 -131.785,-55.225c-33.731,-33.931 -54.528,-80.518 -54.534,-132.137c0.006,-51.619 20.803,-98.21 54.534,-132.141c33.76,-33.903 80.235,-54.925 131.785,-55.222l-0.097,0c0.644,-0.003 1.069,-0.025 1.262,-0.031l0.122,-0.003l-0.219,-7.309l0,7.312l0.219,-0.003l-0.219,-7.309l0,7.312l0,-17.187Z" style="fill:#7b8685;fill-rule:nonzero;"/><path d="M221.916,409.159c-0.157,-0.003 -0.603,-0.028 -1.319,-0.028l0.097,0c-15.232,-0.087 -30.019,-1.987 -44.166,-5.49c-58.675,-39.197 -97.331,-106.01 -97.331,-181.872c0,-75.863 38.653,-142.678 97.328,-181.875c14.147,-3.503 28.937,-5.4 44.169,-5.488l-0.097,0c0.644,-0.003 1.069,-0.025 1.262,-0.031l0.044,0c51.744,0.047 98.431,20.978 132.366,54.888c33.937,33.965 54.881,80.703 54.887,132.506c-0.006,51.797 -20.947,98.537 -54.887,132.503c-33.935,33.906 -80.613,54.837 -132.353,54.887Z" style="fill:#ffd792;fill-rule:nonzero;"/><path d="M221.762,426.347c-0.39,0 -0.771,-0.028 -1.165,-0.028c-15.622,-5.903 -30.388,-13.538 -44.069,-22.678c14.147,3.503 28.934,5.403 44.166,5.49l-0.097,0c0.716,0 1.162,0.025 1.319,0.028c51.74,-0.05 98.418,-20.981 132.353,-54.887c33.94,-33.966 54.881,-80.706 54.887,-132.503c-0.006,-51.803 -20.95,-98.541 -54.887,-132.506c-33.935,-33.91 -80.622,-54.841 -132.366,-54.888l-0.044,0c-0.193,0.006 -0.618,0.028 -1.262,0.031l0.097,0c-15.232,0.088 -30.022,1.985 -44.169,5.488c13.681,-9.138 28.45,-16.775 44.072,-22.678c0.394,0 0.775,-0.028 1.165,-0.028l0,17.187l0,-17.187c112.985,0 204.582,91.593 204.582,204.581c0,112.981 -91.597,204.578 -204.582,204.578Z" style="fill:#bb9c62;fill-rule:nonzero;"/><path d="M103.381,221.984c0,-93.556 34.594,-173.559 117.216,-204.765c-112.444,0.631 -203.409,91.953 -203.409,204.55c0,112.59 90.965,203.919 203.409,204.55c-82.622,-31.213 -117.216,-110.785 -117.216,-204.335Z" style="fill:#febe0f;fill-rule:nonzero;"/><path d="M426.344,221.769c0,-112.988 -91.597,-204.581 -204.582,-204.581c-0.39,0 -0.771,0.031 -1.165,0.031c-82.622,31.206 -141.4,110.997 -141.4,204.55c0,93.55 58.778,173.337 141.4,204.55c0.394,0 0.775,0.028 1.165,0.028c112.985,0 204.582,-91.597 204.582,-204.578Z" style="fill:#ffe100;fill-rule:nonzero;"/><path d="M237.731,59.031c13.166,-4.125 28.688,-4.25 40.519,3.622c6.8,4.36 10.072,12.838 8.466,20.713c-7.36,-4.963 -15.678,-8.55 -24.591,-9.363c-13.347,-1.147 -26.844,-0.631 -40.075,1.488c0.069,-8.685 8.359,-13.897 15.681,-16.46Z" style="fill:#fff34c;fill-rule:nonzero;"/><path d="M301.734,86.013c5.857,-4.972 14.128,-4.613 21.278,-3.529c12.872,2.366 25.388,7.819 35.147,16.66c7.032,6.506 12.657,15.159 13.344,24.934c-6.231,-1.644 -10.278,-6.856 -15.14,-10.65c-11.307,-9.144 -25.11,-15.144 -39.532,-16.994c-5.922,-0.687 -11.95,0.332 -17.812,-0.878c-2.825,-3.187 0.106,-7.331 2.715,-9.543Z" style="fill:#d88118;fill-rule:nonzero;"/><path d="M129.716,91.859c8.975,-3.74 18.259,-8.062 28.228,-7.44c4.74,1.872 9.375,5.2 11.462,9.99c0.691,3.788 -4.478,3.832 -7,4.31c-9.434,0.659 -18.637,3.065 -27.215,7.028c-13.619,5.316 -26.416,13.603 -35.253,25.434c-2.885,3.363 -5.947,8.144 -11.076,7.394c-1.653,-6.872 1.769,-13.497 5.432,-19.084c8.206,-13.022 21.587,-21.6 35.422,-27.632Z" style="fill:#d88118;fill-rule:nonzero;"/><path d="M294.412,132.131c2.36,-4.572 8.057,-8.103 12.847,-4.815c8.16,6.15 15.347,13.512 23.025,20.247c6.76,-5.35 12.347,-12.116 19.45,-17.013c7.103,-1.609 12.966,5.309 13.794,11.856c-6.503,5.772 -12.844,11.775 -18.397,18.478c1.26,1.01 2.522,2.047 3.797,3.085c6.172,5.981 20.638,13.353 14.263,22.19c-3.054,4.238 -8.991,7.844 -14.435,5.235c-6.825,-4.156 -11.722,-10.725 -17.125,-16.481c-7.347,6.865 -12.734,15.637 -20.5,21.993c-6.834,1.285 -17.175,-6.575 -12.037,-13.7c5.372,-7.568 12.184,-13.959 18.2,-20.99c-7.644,-6.307 -15.806,-12.228 -22.05,-19.991c-2.657,-2.812 -1.441,-6.778 -0.832,-10.094Z" style="fill:#8b2a1e;fill-rule:nonzero;"/><path d="M290.397,145.644c-3.531,-4.263 -1.4,-11.944 4.015,-13.513c-0.609,3.316 -1.825,7.282 0.832,10.094c6.244,7.763 14.406,13.684 22.05,19.991c-6.016,7.031 -12.828,13.422 -18.2,20.99c-5.138,7.125 5.203,14.985 12.037,13.7c7.766,-6.356 13.153,-15.128 20.5,-21.993c5.403,5.756 10.3,12.325 17.125,16.481c5.444,2.609 10.966,-1.213 14.435,-5.235c0.387,0.663 1.147,1.997 1.531,2.654c-1.95,5.846 -7.222,10.437 -13.516,10.6c-8.1,-2.1 -12.972,-10.354 -20.972,-12.669c-7.681,5.556 -12.668,14.165 -20.571,19.409c-6.685,-0.297 -12.335,-4.878 -16.504,-9.759c-2.397,-2.719 -4.265,-6.975 -1.812,-10.247c5.7,-8.238 12.75,-15.431 19.912,-22.394c-6.962,-6.019 -15.281,-10.647 -20.862,-18.109Z" style="fill:#febe0f;fill-rule:nonzero;"/><path d="M345.131,160.884c5.553,-6.703 11.894,-12.706 18.397,-18.478c0.141,2.347 2.128,5.091 0.216,7.188c-4.353,5.334 -9.806,9.675 -14.816,14.375c-1.275,-1.038 -2.537,-2.075 -3.797,-3.085Z" style="fill:#fcb41f;fill-rule:nonzero;"/><path d="M115.144,161.706c4.309,0.525 7.072,5.453 10.494,8.028c-5.294,6.782 -10.494,13.66 -16.6,19.744c1.825,-9.272 2.559,-18.99 6.106,-27.772Z" style="fill:#fdd427;fill-rule:nonzero;"/><path d="M230.447,226.584c13.312,-1.915 27.709,-0.234 39.097,7.347c16.115,9.744 25.809,27.607 29.325,45.688c4.922,23.053 -1.019,48.278 -16.432,66.231c-9.849,11.294 -22.646,20.888 -37.634,23.713c-17.869,4.181 -37.744,-1.275 -50.806,-14.188c-10.744,-9.694 -17.031,-23.397 -19.578,-37.466c-4.097,-23.293 0.781,-48.703 15.65,-67.453c9.828,-12.64 24.5,-21.509 40.378,-23.872Z" style="fill:#fdb61e;fill-rule:nonzero;"/><path d="M230.503,231.475c11.713,-1.787 24.291,-1.128 34.75,4.934c17.1,9.397 26.553,28.419 29.572,47.091c1.831,13.941 1.619,28.594 -3.844,41.759c-6.034,16.119 -19.778,29.163 -36.325,34.019c-14.781,4.256 -31.256,3.031 -44.922,-4.165c-13.731,-7.057 -24.065,-20.085 -28.318,-34.869c-5.063,-17.797 -3.485,-37.431 3.868,-54.375c7.81,-18.328 25.535,-31.628 45.219,-34.394Z" style="fill:#8b2a1e;fill-rule:nonzero;"/><path d="M195.944,326.347c11.153,-4.475 23.884,-8.531 35.703,-4.034c11.481,4.915 16.747,17.89 17.478,29.64c-5.441,2.672 -11.897,1.997 -17.744,1.306c-15.478,-2.256 -28.025,-13.625 -35.437,-26.912Z" style="fill:#ef4177;fill-rule:nonzero;"/><path d="M181.044,152.388c4.765,-4.169 4.85,-8.785 4.762,-11.694c-6.325,5.84 -15.365,15.175 -20.153,22.359c0.891,1.103 1.781,2.194 2.681,3.275c4.147,-4.712 7.969,-9.787 12.71,-13.94Z" style="fill:#fdb61e;fill-rule:nonzero;"/><path d="M182.891,195.216c-1.41,-2.353 -4.641,-3.6 -7.007,-0.991c-2.628,2.897 -8.968,-3.578 -11.593,-5.262c-1.81,-1.16 -2.194,-3.45 -3.072,-5.282c-0.457,-0.965 -1.041,-1.887 -1.572,-2.815c-0.947,-1.672 -0.297,-1.669 -0.753,0.047c1.525,-5.725 -7.328,-8.15 -8.847,-2.438c-0.322,1.213 -0.235,2.384 0.084,3.516c-5.797,5.468 -10.475,12.028 -15.9,17.809c-1.453,-1.503 -3.625,-1.591 -5.584,-0.75c-0.909,0.391 -2.341,0.85 -3.469,1.2c-0.494,0.159 -1,0.266 -1.506,0.378c-1.838,-1.597 -2.806,-4.312 -3.85,-6.434c-1.166,-2.363 -3.384,-2.744 -5.253,-1.972c0.222,-0.519 0.506,-1.038 0.878,-1.553c4.809,-6.769 10.669,-12.678 16.234,-18.831c3.616,0.218 6.969,-4.5 3.669,-7.813c-2.984,-3.006 -5.594,-6.097 -8.825,-8.894c-3.397,-2.934 -7.575,-6.553 -7.225,-11.375c0.428,-5.906 -8.747,-5.862 -9.172,0c-0.028,0.36 -0.009,0.7 -0.009,1.05c-1.125,-2.75 -0.216,-6.05 0.309,-8.9c-5.806,1.682 -8.091,9.919 -4.306,14.488c5.665,7.575 13.941,12.444 21.14,18.403c0.35,0.397 0.719,0.778 1.085,1.166c-7.635,7.412 -15.134,15.084 -21.206,23.862c-2.632,3.506 -0.629,8.075 1.943,10.991c4.466,5.231 10.528,10.147 17.697,10.462c8.475,-5.622 13.825,-14.853 22.06,-20.815c8.575,2.484 13.8,11.337 22.487,13.59c6.75,-0.175 12.406,-5.094 14.491,-11.372c-0.41,-0.7 -1.225,-2.131 -1.641,-2.837c-0.4,0.465 -0.837,0.922 -1.287,1.372Z" style="fill:#febe0f;fill-rule:nonzero;"/><path d="M111.05,145.431c-7.522,-7.962 4.753,-23.609 14.031,-16.372c8.766,6.55 15.65,15.425 24.61,21.604c7.562,-6.95 13.175,-15.819 21.015,-22.504c3.347,-2.868 8.041,-0.525 10.832,1.972c3.143,2.566 3.715,6.807 4.268,10.563c-6.325,5.84 -12.309,12.115 -17.094,19.3c-0.412,0.606 -1.256,1.831 -1.668,2.437c6.743,7.791 14.022,15.091 20.953,22.703c3.253,3.141 2.472,8.929 -0.413,11.319c-3.297,2.735 -10.143,5.697 -15.006,2.366c-7.9,-5.178 -14.222,-12.347 -20.953,-18.916c-6.644,7.197 -12.997,14.672 -19.316,22.169c-6.078,8.053 -22.859,-2.322 -17.353,-11.291c5.297,-8.315 12.078,-15.575 18.335,-23.15c-7.547,-7.259 -15.447,-14.209 -22.241,-22.2Z" style="fill:#8b2a1e;fill-rule:nonzero;"/></g><g id="Tilted-Wine-Glass" serif:id="Tilted Wine Glass"><path d="M464.709,508.138c-2.046,-19.538 13.929,-34.563 21.044,-51.363c2.328,-8.537 -3.962,-16.225 -10.122,-21.316c-18.159,-14.703 -36.45,-29.221 -54.787,-43.743c-12.403,13.359 -28.094,24.381 -46.203,28.081c-20.744,4.584 -42.607,-1.741 -59.904,-13.463c-23.281,-15.896 -42.474,-37.393 -56.931,-61.506c31.047,-38.934 62.128,-77.822 93.172,-116.74c27.284,8.896 53,23.231 73.844,43.056c14.634,14.147 25.034,33.631 25.187,54.294c0.388,18.465 -6.893,36.206 -17.153,51.275c17.091,13.784 34.291,27.403 51.416,41.14c5.794,4.503 12.294,9.497 20.019,9.403c9.865,-0.468 14.481,-10.884 21.534,-16.318c8.781,-7.332 17.747,-17.435 30.144,-17.069c-30.075,38.356 -60.478,76.478 -91.26,114.269Zm96.125,-124.282c-8.972,-5.022 -19.281,0.097 -26.946,5.241c-10.747,7.678 -20.61,16.662 -29.285,26.619c-4.016,-1.175 -7.862,-2.95 -11.031,-5.738c-14.875,-11.956 -29.844,-23.79 -44.666,-35.769c5.922,-12.281 11.26,-25.14 12.544,-38.862c2.641,-22.972 -5.703,-46.234 -20.338,-63.853c-20.965,-25.116 -50.587,-41.46 -80.818,-52.856c-6.66,-3.2 -15.422,-3.041 -20.525,2.878c-29.913,37.184 -59.541,74.618 -89.419,111.825c-4.781,5.225 -5.659,13.647 -1.534,19.515c12.422,20.575 28.521,38.875 46.862,54.388c20.875,17.103 48.078,28.997 75.494,25.14c19.187,-2.121 36.197,-12.434 50.816,-24.462c14.393,11.319 28.603,22.837 42.971,34.191c3.591,3.125 8.253,5.959 9.347,10.975c-7.74,14.99 -18.622,28.903 -21.725,45.859c-1.093,6.053 -0.387,13.475 5.053,17.328c6.147,5.75 16.26,2.556 20.607,-3.825c28.265,-35.509 56.565,-70.966 84.94,-106.394c5.978,-6.143 6.016,-18.022 -2.347,-22.2Z" style="fill:#7b8685;fill-rule:nonzero;"/><path d="M525.825,410.938c-7.053,5.434 -11.669,15.85 -21.534,16.318c-7.725,0.094 -14.225,-4.9 -20.019,-9.403c-17.125,-13.737 -34.325,-27.356 -51.416,-41.14c10.26,-15.069 17.541,-32.81 17.153,-51.275c-0.153,-20.663 -10.553,-40.147 -25.187,-54.294c-20.844,-19.825 -46.56,-34.16 -73.844,-43.056c-31.044,38.918 -62.125,77.806 -93.172,116.74c14.457,24.113 33.65,45.61 56.931,61.506c17.297,11.722 39.16,18.047 59.904,13.463c18.109,-3.7 33.8,-14.722 46.203,-28.081c18.337,14.522 36.628,29.04 54.787,43.743c6.16,5.091 12.45,12.779 10.122,21.316c-7.115,16.8 -23.09,31.825 -21.044,51.363c30.782,-37.791 61.185,-75.913 91.26,-114.269c-12.397,-0.366 -21.363,9.737 -30.144,17.069Z" style="fill:#fff;fill-rule:nonzero;"/><path d="M379.15,401.653c-20.109,8.266 -43.413,3.438 -60.909,-8.672c-21.622,-15.15 -38.463,-36.187 -52.085,-58.575c31.406,-34.45 62.835,-68.843 94.31,-103.225c25.531,12.788 50.653,29.047 67.418,52.682c12.035,16.784 15.735,39.39 8.125,58.806c-10.156,26.012 -30.925,48.29 -56.859,58.984Z" style="fill:#fff;fill-rule:nonzero;"/><path d="M416.591,331.553c-15.382,-0.975 -28.235,4.9 -46.244,6.697c-18.01,1.803 -31.81,2.731 -55.966,-0.681c-24.15,-3.41 -37.406,8.425 -37.406,8.425c13.734,19.512 30.306,37.609 50.872,50.059c16.625,9.944 38.09,12.919 55.859,4.191c22.913,-11.281 40.431,-32.781 48.082,-57.031c0.8,-2.516 1.374,-5.075 1.778,-7.657c0,0 -1.597,-3.034 -16.975,-4.003Z" style="fill:#a00046;fill-rule:nonzero;"/></g></svg>